<?xml version="1.0" encoding="UTF-8" standalone="no"?>
<!-- Created with Inkscape (http://www.inkscape.org/) -->

<svg
   width="210mm"
   height="297mm"
   viewBox="0 0 210 297"
   version="1.1"
   id="svg1"
   xml:space="preserve"
   inkscape:version="1.3.2 (091e20e, 2023-11-25, custom)"
   sodipodi:docname="Orange lemonade.svg"
   xmlns:inkscape="http://www.inkscape.org/namespaces/inkscape"
   xmlns:sodipodi="http://sodipodi.sourceforge.net/DTD/sodipodi-0.dtd"
   xmlns="http://www.w3.org/2000/svg"
   xmlns:svg="http://www.w3.org/2000/svg"><sodipodi:namedview
     id="namedview1"
     pagecolor="#505050"
     bordercolor="#eeeeee"
     borderopacity="1"
     inkscape:showpageshadow="0"
     inkscape:pageopacity="0"
     inkscape:pagecheckerboard="0"
     inkscape:deskcolor="#505050"
     inkscape:document-units="mm"
     inkscape:zoom="0.37291748"
     inkscape:cx="595.30596"
     inkscape:cy="469.27272"
     inkscape:window-width="1440"
     inkscape:window-height="830"
     inkscape:window-x="-6"
     inkscape:window-y="-6"
     inkscape:window-maximized="1"
     inkscape:current-layer="layer1" /><defs
     id="defs1" /><g
     inkscape:label="Layer 1"
     inkscape:groupmode="layer"
     id="layer1"><path
       style="fill:#ffffff;stroke-width:0.406374"
       d="m 34.651016,32.412552 157.530404,3.045402 -19.49634,225.359416 -10.91796,4.56811 -14.03737,4.56809 -15.59705,0.76135 H 117.31548 96.259433 l -14.817256,-3.04538 -11.697791,-0.76136 -14.817208,-6.09081 z"
       id="path1-2" /><path
       style="fill:#ececec;stroke-width:1.89615"
       d="m 334.67014,1016.4062 c -14.53208,-3.2543 -33.60032,-6.0192 -46.45563,-6.736 -21.10785,-1.1769 -22.72515,-1.5891 -50.53551,-12.88047 l -28.72981,-11.66467 -1.06207,-8.57072 c -2.85846,-23.06748 -75.61007,-851.58729 -74.84437,-852.35299 0.7699,-0.7699 375.36689,5.99571 534.87542,9.6604 l 56.41041,1.29603 -0.009,5.89685 c -0.005,3.24327 -16.21708,193.14883 -36.02682,422.01237 -19.80976,228.86353 -36.0252,417.43546 -36.03432,419.04874 -0.0199,3.51633 -26.11231,14.64949 -67.34276,28.73386 l -28.39615,9.7002 -98.5997,0.6883 -98.5997,0.6883 z"
       id="path1"
       transform="scale(0.26458333)" /><ellipse
       style="fill:#ffff00;fill-opacity:1;stroke-width:0.264583"
       id="path6"
       cx="43.988731"
       cy="24.122852"
       rx="35.474781"
       ry="17.027895" /><path
       style="fill:#ececec;stroke-width:2.68156"
       d="m 349.86886,1019.1559 c -8.08851,-3.3195 -54.21199,-10.8815 -66.76659,-10.9465 -6.00825,-0.031 -19.371,-3.1216 -29.695,-6.8678 -10.324,-3.74616 -19.97761,-7.16364 -21.45247,-7.59438 -13.60728,-3.9741 -22.79788,-10.28558 -22.83971,-15.68479 -0.0256,-3.29864 -1.26482,-17.46118 -2.75392,-31.47232 -3.0746,-28.92946 -4.49462,-44.2234 -6.59795,-71.0613 -0.80911,-10.324 -2.65045,-30.83792 -4.09187,-45.58649 -1.44142,-14.74857 -3.18679,-33.45244 -3.87861,-41.56416 -2.27936,-26.7261 -6.96258,-78.91046 -8.06187,-89.8322 -0.59379,-5.89943 -1.80256,-20.37985 -2.68616,-32.1787 -1.40924,-18.81778 -3.87464,-45.95625 -7.91723,-87.15065 -0.6513,-6.63686 -1.89685,-21.72062 -2.76788,-33.51948 -0.87103,-11.79886 -2.82881,-34.72618 -4.35062,-50.94961 -1.52181,-16.22343 -3.27146,-34.9273 -3.88811,-41.56415 -0.61664,-6.63686 -1.79321,-21.11728 -2.61459,-32.1787 -0.82138,-11.06143 -2.79209,-32.78206 -4.37936,-48.26805 -1.58727,-15.486 -2.89506,-29.96642 -2.9062,-32.17871 -0.0111,-2.21228 -2.37095,-29.36306 -5.24402,-60.33506 -2.87306,-30.972 -5.25626,-58.12278 -5.29599,-60.33506 -0.0397,-2.21229 -1.73114,-23.86782 -3.75869,-48.12341 -2.02756,-24.25558 -3.30153,-44.486 -2.83105,-44.95648 1.31514,-1.31514 95.77082,-1.04481 157.19889,0.44989 60.56751,1.47376 157.03319,3.36014 280.22285,5.47973 44.24572,0.76129 96.46054,2.10262 116.03294,2.98074 l 35.58616,1.59658 -1.39377,12.45972 c -1.77938,15.90706 -6.32167,70.184 -6.31641,75.47634 0.002,2.21229 -1.17436,16.08935 -2.61457,30.83793 -1.44022,14.74857 -2.64692,28.62563 -2.68156,30.83792 -0.0346,2.21228 -1.24135,16.08935 -2.68156,30.83792 -1.44021,14.74857 -2.63458,28.62563 -2.65415,30.83792 -0.0196,2.21229 -2.50131,31.17312 -5.51498,64.3574 -3.01364,33.18429 -6.18571,70.59203 -7.04901,83.12831 -0.86333,12.53629 -2.05201,24.6033 -2.64158,26.81558 -0.58954,2.21229 -1.81053,16.69271 -2.71328,32.17871 -0.90277,15.48599 -2.15466,30.56976 -2.78198,33.51947 -0.6273,2.94972 -1.73095,14.41338 -2.45253,25.47481 -0.72158,11.06143 -3.72077,47.26247 -6.66485,80.44675 -2.94406,33.18429 -6.015,69.38532 -6.8243,80.44675 -0.80929,11.06143 -2.04916,24.9385 -2.75527,30.83792 -0.70611,5.89943 -1.90184,19.7765 -2.65718,30.83793 -0.75537,11.06142 -1.96237,24.93849 -2.68226,30.83792 -0.71989,5.89943 -1.85392,18.56979 -2.5201,28.15636 -0.66618,9.58657 -2.67207,33.38031 -4.4575,52.87497 l -3.24624,35.44484 -20.38709,8.51105 c -11.21291,4.68106 -31.97758,12.42444 -46.14369,17.20764 l -25.75661,8.6966 -101.61741,1.5059 c -55.88961,0.8283 -104.06438,0.5017 -107.05507,-0.7256 z"
       id="path2"
       transform="scale(0.26458333)" /><rect
       style="fill:#f9f9f9;fill-opacity:1;stroke-width:0.264583"
       id="rect6"
       width="12.061426"
       height="24.122852"
       x="134.17108"
       y="-84.260902"
       transform="rotate(34.483955)" /><path
       style="fill:#f2f2f2;stroke-width:2.68156"
       d="m 353.72641,1020.5406 c -2.59678,-2.5968 -38.45829,-9.1441 -60.09577,-10.9718 -32.73319,-2.7649 -84.44655,-21.35235 -84.49109,-30.36882 -0.0121,-2.44942 -1.16051,-14.71047 -2.55202,-27.24675 -2.42899,-21.883 -4.01727,-38.96605 -6.85614,-73.74286 -0.72237,-8.84914 -1.88878,-21.51951 -2.59203,-28.15636 -2.24804,-21.2155 -3.8535,-38.42263 -5.25412,-56.31273 -2.1011,-26.83752 -7.04669,-83.37633 -8.2097,-93.85454 -0.57294,-5.162 -1.74812,-19.03907 -2.61151,-30.83792 -1.47156,-20.11 -5.48061,-64.26524 -8.03452,-88.49143 -0.62191,-5.89943 -1.84779,-20.98319 -2.72417,-33.51948 -1.39386,-19.93875 -3.59439,-44.57512 -7.90409,-88.49143 -0.65131,-6.63685 -1.88874,-21.72062 -2.74986,-33.51948 -0.86111,-11.79885 -2.74961,-33.51948 -4.19666,-48.26805 -1.44705,-14.74857 -3.27327,-35.26249 -4.05825,-45.58649 -0.78499,-10.324 -3.30658,-38.68148 -5.60354,-63.01662 -2.29696,-24.33514 -4.21343,-46.05577 -4.25883,-48.26805 -0.0454,-2.21229 -1.70431,-23.86966 -3.68647,-48.12749 -1.98216,-24.25783 -3.21705,-44.49202 -2.74421,-44.96486 1.28814,-1.28814 100.17039,-0.99676 161.20877,0.47503 53.1846,1.28242 133.03042,2.84553 280.22285,5.4858 42.03343,0.75398 92.45887,2.08921 112.05653,2.96718 l 35.6321,1.59631 -1.49315,15.13882 c -4.59327,46.57006 -6.65651,70.46243 -6.23398,72.18882 0.26175,1.06935 -0.35439,9.18449 -1.36918,18.03363 -1.0148,8.84915 -2.42217,23.93291 -3.12747,33.51948 -0.7053,9.58657 -2.44164,29.40831 -3.85855,44.04831 -1.41688,14.64 -2.43477,27.31037 -2.26197,28.15637 0.1728,0.846 -0.59367,11.19179 -1.7033,22.99065 -1.10963,11.79885 -2.47891,26.88262 -3.04282,33.51948 -0.56393,6.63685 -2.22277,25.34072 -3.68636,41.56415 -1.46357,16.22343 -3.37885,39.7541 -4.25615,52.29039 -0.8773,12.53628 -2.05761,24.6033 -2.62291,26.81558 -0.56533,2.21229 -1.78881,16.62312 -2.71886,32.02403 -0.93004,15.40094 -2.08097,28.67466 -2.55759,29.49714 -0.47662,0.82252 -1.65549,14.48447 -2.61972,30.35994 -0.96421,15.87549 -2.22789,30.35591 -2.80813,32.1787 -0.58026,1.82281 -1.81525,16.51909 -2.74444,32.65838 -0.92916,16.13928 -2.07338,30.01634 -2.54265,30.83792 -0.4693,0.82157 -1.72832,14.16412 -2.79786,29.65012 -1.06954,15.486 -2.30778,32.15076 -2.75163,37.03283 -0.44388,4.88205 -1.54873,16.94906 -2.45526,26.81559 -0.90653,9.8665 -2.1925,24.57597 -2.85771,32.68768 -0.66521,8.11172 -1.84888,21.38543 -2.63034,29.49715 -1.55659,16.15751 -2.89809,32.3069 -5.56877,67.03896 -0.96394,12.53628 -2.15181,25.80999 -2.63967,29.49714 -0.48785,3.68714 -0.97016,9.25419 -1.07176,12.37121 -0.21565,6.61452 -13.73658,13.19667 -61.86061,30.11447 l -30.83792,10.8409 -101.98741,1.6283 c -56.09306,0.8956 -102.61906,0.9967 -103.3911,0.2247 z"
       id="path3"
       transform="scale(0.26458333)" /><path
       style="fill:#000000;stroke-width:0.771093"
       d="m 93.701648,279.78713 c -3.207318,-0.24621 -10.67315,-1.19418 -16.590734,-2.10666 -5.917575,-0.91243 -11.078446,-1.46496 -11.468595,-1.2278 -0.390138,0.23714 -0.70935,0.0298 -0.70935,-0.46047 0,-0.49042 -0.524834,-0.6936 -1.166305,-0.45148 -0.64146,0.24208 -1.166294,0.0917 -1.166294,-0.33408 0,-0.42583 -0.43736,-0.70487 -0.971916,-0.62009 -1.016857,0.16124 -2.059513,-0.18642 -7.192164,-2.39819 -5.19173,-2.23721 -5.984599,-3.1646 -6.241674,-7.30071 -0.128898,-2.07381 -0.428659,-5.66322 -0.666139,-7.97646 -0.452736,-4.41004 -0.624911,-6.30461 -2.432368,-26.76474 -0.204352,-2.31325 -0.534655,-5.41031 -0.733998,-6.88237 -0.199354,-1.47207 -0.556593,-5.26402 -0.793866,-8.42658 -0.237271,-3.16255 -0.574225,-6.94785 -0.748769,-8.41178 -0.174554,-1.46391 -0.531542,-5.93079 -0.793329,-9.9264 -0.261776,-3.99559 -0.639684,-8.29707 -0.839794,-9.55882 -0.2001,-1.26178 -0.55117,-4.70296 -0.780145,-7.64708 -0.886272,-11.39558 -1.161527,-14.63479 -1.494635,-17.58827 -0.189733,-1.68235 -0.540813,-5.46765 -0.780167,-8.41177 -0.239365,-2.94413 -0.620615,-7.41766 -0.847236,-9.9412 -0.22662,-2.52353 -0.561623,-6.30883 -0.74444,-8.41178 -0.182817,-2.10293 -0.517108,-5.54411 -0.742863,-7.64707 -0.491311,-4.57675 -1.174556,-12.19217 -1.6123,-17.97061 -0.175234,-2.31324 -0.509997,-6.09854 -0.743915,-8.41178 C 33.206744,98.597702 32.855631,94.812406 32.660408,92.499163 32.341734,88.723028 32.009174,84.9172 31.156937,75.293256 31.007959,73.6109 30.622827,69.653541 30.301087,66.499124 29.979351,63.344707 29.649124,59.731463 29.567252,58.469693 29.485377,57.207935 29.161322,54.282931 28.847122,51.969686 28.262178,47.663158 27.74012,39.726063 27.409179,30.107984 l -0.186508,-5.420504 7.386555,0.231967 c 4.062599,0.127581 19.10784,0.429936 33.433868,0.671893 32.793226,0.553863 51.987616,0.938994 84.362196,1.692714 14.1122,0.32855 29.85722,0.560586 34.98893,0.515638 5.62507,-0.04928 9.53552,0.230242 9.84694,0.703843 0.47165,0.717315 0.2886,5.129506 -0.54526,13.142607 -0.17507,1.682356 -0.4856,5.467652 -0.69006,8.411776 -0.20447,2.944124 -0.57213,7.245609 -0.81702,9.558843 -0.2449,2.313235 -0.61315,6.098541 -0.81832,8.411776 -0.20517,2.313245 -0.53406,5.926478 -0.73084,8.029431 -0.19678,2.102941 -0.53057,6.0603 -0.74175,8.794132 -0.4001,5.179324 -0.87391,10.691283 -1.64337,19.11767 -0.73076,8.00259 -1.03339,11.52145 -1.47975,17.20592 -0.4022,5.12201 -0.90474,10.51802 -1.67364,17.97061 -0.19527,1.89265 -0.50764,5.67794 -0.69416,8.41178 -0.18653,2.73382 -0.54058,6.86323 -0.78678,9.17649 -0.24621,2.31323 -0.61391,6.27058 -0.81714,8.79412 -0.37415,4.64604 -0.56148,6.72482 -1.41268,15.6765 -0.25996,2.73383 -0.68349,7.72354 -0.94119,11.08826 -0.25771,3.3647 -0.59247,7.32206 -0.74394,8.79412 -0.15147,1.47206 -0.65027,6.97795 -1.10846,12.23532 -0.45818,5.25736 -0.9985,11.10737 -1.20072,13.00002 -0.20221,1.89265 -0.54422,5.85 -0.76003,8.79412 -0.21581,2.94413 -0.60251,7.93385 -0.85933,11.08826 -0.25683,3.15442 -0.55903,6.93972 -0.67154,8.41178 -0.87999,11.51286 -1.37988,13.66286 -3.63647,15.64033 -1.23,1.07785 -2.23636,1.7729 -2.23636,1.54457 0,-0.22834 -0.78725,0.0142 -1.74945,0.53891 -0.96219,0.52475 -2.01186,0.88097 -2.33258,0.79162 -0.32074,-0.0893 -0.58316,0.23901 -0.58316,0.7297 0,0.49068 -0.23023,0.66572 -0.51161,0.38898 -0.28138,-0.27674 -0.98116,-0.1199 -1.55506,0.34855 -0.5739,0.46843 -1.04346,0.59538 -1.04346,0.28209 0,-0.31332 -0.52483,-0.14124 -1.16629,0.38232 -0.64147,0.52362 -1.16631,0.76185 -1.16631,0.52942 0,-0.2324 -2.88658,0.6487 -6.41463,1.95804 l -6.41465,2.38059 -24.88099,0.0513 c -13.68457,0.0282 -27.505192,-0.15016 -30.712512,-0.39634 z"
       id="path4-0" /><path
       style="fill:#f2f2f2;stroke-width:2.68156"
       d="m 364.69194,1018.7633 c -11.06143,-0.8634 -36.80964,-4.1876 -57.21825,-7.3873 -20.4086,-3.1996 -38.20745,-5.1371 -39.55298,-4.3055 -1.34554,0.8316 -2.44643,0.1049 -2.44643,-1.6147 0,-1.7197 -1.81005,-2.4322 -4.02234,-1.5832 -2.21228,0.8489 -4.02234,0.3218 -4.02234,-1.1715 0,-1.4932 -1.50837,-2.4717 -3.35194,-2.1744 -3.50697,0.5654 -7.10289,-0.6537 -24.80442,-8.40958 -17.90529,-7.84514 -20.63971,-11.09717 -21.52633,-25.60105 -0.44455,-7.27214 -1.47837,-19.85892 -2.29738,-27.97064 -1.56139,-15.46444 -2.15519,-22.10802 -8.38878,-93.85454 -0.70477,-8.11171 -1.84391,-18.97203 -2.53142,-24.13403 -0.68751,-5.16199 -1.91956,-18.45907 -2.73788,-29.54903 -0.81832,-11.08996 -1.98039,-24.36367 -2.58237,-29.49714 -0.60198,-5.13347 -1.83318,-20.79723 -2.73601,-34.80837 -0.90283,-14.01114 -2.20616,-29.09491 -2.89629,-33.51948 -0.69014,-4.42457 -1.9009,-16.49158 -2.69058,-26.81558 -3.05657,-39.96026 -4.00591,-51.31908 -5.1547,-61.67584 -0.65437,-5.89943 -1.86518,-19.17315 -2.69068,-29.49715 -0.8255,-10.324 -2.14037,-26.01111 -2.92194,-34.86026 -0.78157,-8.84914 -1.93691,-22.12285 -2.56742,-29.49714 -0.63052,-7.37428 -1.78341,-19.4413 -2.56199,-26.81558 -1.69446,-16.0491 -4.05085,-42.75364 -5.56053,-63.01662 -0.60436,-8.11172 -1.75888,-21.38543 -2.56561,-29.49715 -0.80672,-8.11171 -2.01763,-21.38542 -2.69091,-29.49714 -1.09906,-13.24159 -2.24599,-26.58727 -5.18519,-60.33506 -0.5138,-5.89943 -1.84204,-19.7765 -2.95166,-30.83792 -1.10961,-11.06143 -2.2485,-23.7318 -2.53086,-28.15637 -0.28236,-4.42457 -1.39997,-14.68153 -2.48359,-22.79324 -2.01736,-15.10151 -3.81784,-42.93409 -4.95919,-76.6613 l -0.64323,-19.0078 25.4748,0.81343 c 14.01115,0.44738 65.8993,1.50763 115.30701,2.35609 113.09757,1.9422 179.2953,3.29272 290.94909,5.93575 48.67028,1.15211 102.97184,1.96578 120.67013,1.80816 19.39976,-0.17278 32.88614,0.80738 33.96016,2.46813 1.62666,2.51537 0.99537,17.98737 -1.88044,46.0865 -0.60378,5.89943 -1.67474,19.17314 -2.37991,29.49714 -0.70517,10.324 -1.97314,25.40777 -2.81776,33.51948 -0.84458,8.11172 -2.11459,21.38543 -2.8222,29.49714 -0.70761,8.11172 -1.84186,20.78208 -2.52051,28.15637 -0.67867,7.37428 -1.82986,21.25135 -2.5582,30.83792 -1.37985,18.1621 -3.01394,37.4906 -5.66764,67.03896 -2.52026,28.06229 -3.56398,40.40164 -5.10338,60.33506 -1.38711,17.96113 -3.12029,36.88307 -5.77208,63.01662 -0.67345,6.63686 -1.75076,19.91057 -2.39404,29.49715 -0.64325,9.58657 -1.8643,24.06698 -2.71342,32.1787 -0.84911,8.11171 -2.1173,21.98877 -2.81818,30.83792 -1.29037,16.29199 -1.93643,23.58157 -4.87204,54.97194 -0.89655,9.58658 -2.35725,27.08374 -3.246,38.8826 -0.88878,11.79886 -2.04332,25.67592 -2.56572,30.83792 -0.52236,5.162 -2.24264,24.46922 -3.82283,42.90494 -1.58019,18.43571 -3.44365,38.94963 -4.14105,45.58649 -0.69739,6.63686 -1.87693,20.51392 -2.62122,30.83792 -0.74427,10.324 -2.07794,27.82117 -2.96369,38.8826 -0.88574,11.06142 -1.92796,24.33514 -2.316,29.49714 -3.03491,40.37153 -4.75894,47.91084 -12.54152,54.84513 -4.24201,3.77966 -7.71272,6.21696 -7.71272,5.41627 0,-0.80069 -2.71508,0.0497 -6.03351,1.8898 -3.31843,1.84009 -6.93853,3.08924 -8.04467,2.7759 -1.10615,-0.31334 -2.01117,0.83812 -2.01117,2.55879 0,1.72065 -0.79401,2.33445 -1.76444,1.36403 -0.97046,-0.97043 -3.38386,-0.42044 -5.36312,1.22222 -1.97928,1.6426 -3.59868,2.0878 -3.59868,0.9892 0,-1.0987 -1.81005,-0.4953 -4.02233,1.3407 -2.21229,1.8361 -4.02234,2.6715 -4.02234,1.8565 0,-0.815 -9.95529,2.2747 -22.12286,6.8661 l -22.12286,8.3479 -85.80986,0.1798 c -47.19543,0.099 -94.86013,-0.5265 -105.92156,-1.3898 z"
       id="path4"
       transform="scale(0.26458333)" /><path
       style="fill:#e79618;stroke-width:0.264583;fill-opacity:1"
       d="m 36.893775,61.726121 148.994085,4.256974 2.74727,0.114454 -16.22769,185.773411 -0.53212,5.49858 -1.59637,3.01536 -22.17173,8.8687 -29.62145,0.7095 -23.058606,-1.06426 -26.606087,-3.54748 -13.12567,-5.67595 z"
       id="path5" /></g></svg>
