<?xml version="1.0" encoding="UTF-8" standalone="no"?>
<!-- Created with Inkscape (http://www.inkscape.org/) -->

<svg
   width="210mm"
   height="297mm"
   viewBox="0 0 210 297"
   version="1.1"
   id="svg1"
   xml:space="preserve"
   inkscape:version="1.3.2 (091e20e, 2023-11-25, custom)"
   sodipodi:docname="Tennents Zero.svg"
   xmlns:inkscape="http://www.inkscape.org/namespaces/inkscape"
   xmlns:sodipodi="http://sodipodi.sourceforge.net/DTD/sodipodi-0.dtd"
   xmlns="http://www.w3.org/2000/svg"
   xmlns:svg="http://www.w3.org/2000/svg"><sodipodi:namedview
     id="namedview1"
     pagecolor="#505050"
     bordercolor="#eeeeee"
     borderopacity="1"
     inkscape:showpageshadow="0"
     inkscape:pageopacity="0"
     inkscape:pagecheckerboard="0"
     inkscape:deskcolor="#505050"
     inkscape:document-units="mm"
     inkscape:zoom="0.30009657"
     inkscape:cx="133.29043"
     inkscape:cy="283.24216"
     inkscape:window-width="1440"
     inkscape:window-height="830"
     inkscape:window-x="-6"
     inkscape:window-y="-6"
     inkscape:window-maximized="1"
     inkscape:current-layer="layer1" /><defs
     id="defs1"><rect
       x="326.56155"
       y="769.75222"
       width="119.96138"
       height="46.651649"
       id="rect10" /><rect
       x="293.23894"
       y="693.11022"
       width="209.93243"
       height="41.708797"
       id="rect17" /><rect
       x="271.91247"
       y="629.13082"
       width="124.4044"
       height="42.652937"
       id="rect16" /><rect
       x="293.23895"
       y="693.11023"
       width="101.07858"
       height="35.877341"
       id="rect17-3" /></defs><g
     inkscape:label="Layer 1"
     inkscape:groupmode="layer"
     id="layer1"><path
       style="fill:#000000;stroke-width:0.481447"
       d="m 47.746583,8.9783512 1.795727,7.1665228 -15.263629,22.932875 2.693579,223.595531 12.57005,8.59982 8.978599,8.59985 91.581751,1.4333 12.57005,-11.46644 6.28502,-4.29992 2.69359,-0.71666 1.7957,-225.745481 -15.2636,-22.216223 -0.89787,-7.1665198 z"
       id="path13-6" /><path
       style="fill:#f5d300;fill-opacity:1;stroke-width:0.700297"
       d="m 90.129694,267.11776 c -12.47977,-0.23773 -23.562329,-0.47374 -24.627889,-0.52445 -1.386437,-0.066 -3.054857,-1.24469 -5.866901,-4.14474 -2.16123,-2.22887 -6.463515,-5.80318 -9.56063,-7.94289 l -5.631105,-3.8904 -0.05061,-15.88579 c -0.02779,-8.7372 -0.543822,-55.96373 -1.146629,-104.94787 L 42.149932,40.719556 49.047067,29.943062 55.944217,19.166567 55.15592,15.909566 c -0.433568,-1.79135 -0.74022,-3.287993 -0.681474,-3.325875 0.05868,-0.03786 21.949087,0.07402 48.645204,0.248705 l 48.53839,0.317584 0.50764,3.317493 c 0.37873,2.47515 2.24371,5.998763 7.34505,13.877452 l 6.8374,10.559964 -0.48339,63.357611 c -0.99317,130.17036 -1.31534,148.62219 -2.59509,148.62219 -0.63518,0 -4.95099,3.35546 -9.59072,7.45657 l -8.43587,7.4566 -16.21143,-0.12403 c -8.9163,-0.068 -26.42217,-0.31844 -38.901931,-0.55616 z"
       id="path14" /><path
       style="fill:#ffffff;fill-opacity:1;stroke-width:0.691311"
       d="M 63.552634,95.992089 V 72.116125 l 82.883016,-0.519034 2.18111,26.990213 h -19.63017 l -0.72704,-11.418934 -6.54341,0.519036 v 35.294854 h 7.99748 v 18.16649 L 80.274645,140.1107 v -16.60938 l 7.997501,0.51905 V 86.649348 H 79.5476 v 10.899883 z"
       id="path15-1" /><path
       style="fill:#d40000;fill-opacity:1;stroke-width:0.632758"
       d="M 68.06948,96.383543 V 74.065684 l 74.28519,-0.485163 1.95487,25.228883 h -17.59388 l -0.65161,-10.673753 -5.86462,0.485164 v 32.991595 h 7.16787 v 16.98098 l -44.310457,-0.9703 v -15.5255 l 7.167883,0.48518 V 87.650489 h -7.819509 v 10.188574 z"
       id="path15" /><path
       style="fill:#f9f9f9;fill-opacity:1;stroke-width:0.420314"
       d="M 40.639203,38.999212 164.88225,41.765718 151.16711,18.25042 148.74678,13.409035 52.740797,12.025779 55.967893,18.25042 Z"
       id="path16" /><text
       xml:space="preserve"
       transform="matrix(0.62993546,0,0,0.68799401,-96.791066,-250.81828)"
       id="text16"
       style="font-style:normal;font-variant:normal;font-weight:bold;font-stretch:normal;font-size:26.6667px;font-family:Calibri;-inkscape-font-specification:'Calibri Bold';white-space:pre;shape-inside:url(#rect16);fill:#000000;fill-opacity:1"><tspan
         x="271.91211"
         y="652.46422"
         id="tspan1">TENNET'S</tspan></text><text
       xml:space="preserve"
       transform="matrix(0.45395593,0,0,0.38916509,-71.981275,-70.666801)"
       id="text17"
       style="font-style:normal;font-variant:normal;font-weight:bold;font-stretch:normal;font-size:26.6667px;font-family:Calibri;-inkscape-font-specification:'Calibri Bold';white-space:pre;shape-inside:url(#rect17);fill:#000000;fill-opacity:1"><tspan
         x="293.23828"
         y="716.44274"
         id="tspan2">____             ____</tspan></text><path
       style="fill:#00ffff;stroke-width:3.33226"
       d="m 292.64509,1007.1843 -48.91163,-1.017 -21.44113,-19.4308 C 210.49971,976.04954 194.076,962.64422 185.79519,956.94689 l -15.05602,-10.35883 -2.14593,-160.89457 c -6.60533,-495.24572 -7.7188,-631.03541 -5.19634,-633.7004 1.62806,-1.72004 98.00212,-0.77292 230.38295,2.26409 174.58703,4.00528 228.21986,4.30589 230.31432,1.2909 2.9036,-4.17976 -0.15432,540.26061 -3.94273,701.97592 -2.04771,87.41009 -2.78944,96.40356 -8.20033,99.43166 -3.27194,1.83107 -18.88505,14.44201 -34.6958,28.02427 l -28.74681,24.69507 -103.4759,-0.7368 c -56.91173,-0.4053 -125.48612,-1.1946 -152.38751,-1.7539 z m 60.57454,-200.77722 c 0,-1.83274 2.24928,-3.33226 4.99839,-3.33226 2.74912,0 4.99839,1.30228 4.99839,2.89397 0,1.59166 8.24735,3.08408 18.32744,3.31647 17.43136,0.40184 18.32743,0.016 18.32743,-7.89236 0,-6.23409 -1.75699,-8.31486 -7.02104,-8.31486 -4.87188,0 -6.43391,1.53001 -5.10297,4.99839 1.05494,2.74912 0.46561,4.99839 -1.30961,4.99839 -1.77523,0 -3.22768,-2.99903 -3.22768,-6.66452 0,-4.88732 2.22151,-6.66452 8.33065,-6.66452 4.58186,0 8.33065,-1.59002 8.33065,-3.53343 0,-2.04067 -5.22348,-3.09647 -12.36438,-2.49919 -9.97672,0.83453 -12.78001,2.64295 -14.51676,9.36488 l -2.1524,8.33065 -2.50577,-9.16371 c -3.38301,-12.37179 -13.15785,-11.9303 -18.4446,0.83306 -2.27744,5.49823 -6.20816,9.99678 -8.73492,9.99678 -2.88307,0 -4.59412,-3.72323 -4.59412,-9.99678 0,-6.66452 -1.66613,-9.99678 -4.99839,-9.99678 -3.60995,0 -4.99839,3.70251 -4.99839,13.32904 v 13.32904 h 13.32904 c 7.33097,0 13.32904,-1.49951 13.32904,-3.33226 z m 69.97748,0 c 0,-1.83274 -2.62416,-3.5062 -5.83146,-3.7188 -5.55377,-0.36815 -5.55377,-0.45912 0,-1.91048 3.2073,-0.83813 5.83146,-2.91347 5.83146,-4.61182 0,-1.69839 -2.62416,-3.26188 -5.83146,-3.47448 -5.55377,-0.36815 -5.55377,-0.45912 0,-1.91049 9.47998,-2.47736 6.65483,-7.69975 -4.16533,-7.69975 -9.4414,0 -9.99678,0.74049 -9.99678,13.32904 0,12.58855 0.55538,13.32904 9.99678,13.32904 5.49823,0 9.99679,-1.49951 9.99679,-3.33226 z m 10.10275,-2.49919 c 0.10093,-5.55378 0.31678,-5.55378 4.53269,0 7.05845,9.29834 10.98255,6.8157 10.53409,-6.66452 -0.38354,-11.52859 -1.24492,-12.57682 -11.1265,-13.54018 -10.47355,-1.02107 -10.71077,-0.74429 -10.71077,12.49598 0,12.7515 6.54346,20.2017 6.77049,7.70872 z M 323.22929,793.07804 c 0,-2.06283 -17.77206,-3.33226 -46.65165,-3.33226 -28.8796,0 -46.65165,1.26943 -46.65165,3.33226 0,2.06284 17.77205,3.33226 46.65165,3.33226 28.87959,0 46.65165,-1.26942 46.65165,-3.33226 z m 226.59372,0 c 0,-2.06283 -17.77204,-3.33226 -46.65165,-3.33226 -28.87959,0 -46.65165,1.26943 -46.65165,3.33226 0,2.06284 17.77206,3.33226 46.65165,3.33226 28.87961,0 46.65165,-1.26942 46.65165,-3.33226 z M 303.23572,731.43122 c 0,-14.06954 1.16124,-18.32743 4.99839,-18.32743 2.74912,0 4.99839,-2.24928 4.99839,-4.9984 0,-3.77655 -4.07276,-4.99839 -16.6613,-4.99839 -12.58854,0 -16.6613,1.22184 -16.6613,4.99839 0,2.74912 2.24927,4.9984 4.99839,4.9984 3.75358,0 4.99839,4.01104 4.99839,16.10591 0,16.90606 1.5753,20.54895 8.88603,20.54895 3.16396,0 4.44301,-5.27607 4.44301,-18.32743 z m 39.98713,13.32904 c 0,-3.1101 -3.14713,-4.99839 -8.33065,-4.99839 -5.18352,0 -8.33065,-1.88829 -8.33065,-4.99839 0,-2.77687 2.96201,-4.99839 6.66452,-4.99839 3.70251,0 6.66452,-2.22152 6.66452,-4.99839 0,-2.77688 -2.96201,-4.99839 -6.66452,-4.99839 -3.66549,0 -6.66452,-1.49952 -6.66452,-3.33226 0,-1.83275 3.74879,-3.33226 8.33065,-3.33226 5.18352,0 8.33065,-1.8883 8.33065,-4.9984 0,-3.60993 -3.70251,-4.99839 -13.32904,-4.99839 h -13.32905 v 23.32583 23.32582 h 13.32905 c 9.62653,0 13.32904,-1.38845 13.32904,-4.99839 z m 13.47632,-7.49758 0.14727,-12.49598 6.59685,12.49598 c 4.2226,7.99859 8.96682,12.49597 13.18177,12.49597 5.93125,0 6.58492,-2.31549 6.58492,-23.32582 0,-18.51258 -1.03142,-23.32583 -4.99839,-23.32583 -3.52823,0 -5.04171,3.67542 -5.14567,12.49598 l -0.14727,12.49598 -6.59686,-12.49598 c -4.22259,-7.99859 -8.96681,-12.49598 -13.18177,-12.49598 -5.93124,0 -6.58491,2.31549 -6.58491,23.32583 0,18.51257 1.03142,23.32582 4.99839,23.32582 3.52823,0 5.04171,-3.67541 5.14567,-12.49597 z m 43.38522,1.66613 0.21312,-10.82985 5.38984,10.82985 c 3.12164,6.27234 7.94003,10.82984 11.4498,10.82984 5.2813,0 6.05996,-2.9972 6.05996,-23.32582 0,-18.51258 -1.03142,-23.32583 -4.99839,-23.32583 -3.37399,0 -5.06765,3.51954 -5.21151,10.82985 l -0.21311,10.82985 -5.38984,-10.82985 c -3.12165,-6.27235 -7.94003,-10.82985 -11.4498,-10.82985 -5.2813,0 -6.05996,2.99721 -6.05996,23.32583 0,18.51257 1.03141,23.32582 4.99839,23.32582 3.37399,0 5.06765,-3.51953 5.2115,-10.82984 z m 56.43532,5.83145 c 0,-2.77687 -2.96201,-4.99839 -6.66452,-4.99839 -3.70251,0 -6.66452,-2.22152 -6.66452,-4.99839 0,-2.77687 2.96201,-4.99839 6.66452,-4.99839 3.66549,0 6.66452,-1.63991 6.66452,-3.64423 0,-2.00432 -2.99903,-4.42847 -6.66452,-5.38703 -11.38778,-2.97798 -7.32439,-7.63004 6.66452,-7.63004 h 13.32905 v 18.32743 c 0,14.06954 1.16124,18.32743 4.99839,18.32743 3.83714,0 4.99839,-4.25789 4.99839,-18.32743 0,-14.06954 1.16124,-18.32743 4.99839,-18.32743 2.74911,0 4.99839,-2.24928 4.99839,-4.9984 0,-4.07275 -5.55377,-4.99839 -29.99035,-4.99839 h -29.99034 v 23.32583 23.32582 h 13.32904 c 9.62653,0 13.32904,-1.38845 13.32904,-4.99839 z m 76.10227,-6.57768 c 0.86422,-7.60322 -1.07489,-11.75182 -8.33065,-17.82286 l -9.45706,-7.91296 9.4333,2.12579 c 7.85661,1.77049 9.24139,1.12917 8.28503,-3.8368 -0.84136,-4.36886 -4.25349,-5.96262 -12.76559,-5.96262 -10.66556,0 -11.70266,0.88522 -12.65965,10.80589 -0.8564,8.87751 0.48164,11.50033 7.49758,14.697 10.94255,4.98577 11.0817,10.74864 0.20933,8.67028 -6.54845,-1.25183 -8.33065,-0.22256 -8.33065,4.81108 0,5.36205 2.03245,6.23536 12.49598,5.36938 11.10193,-0.91887 12.62164,-2.13978 13.62238,-10.94418 z m -29.45062,-28.41106 c 0,-6.66452 -1.66613,-9.99678 -4.99839,-9.99678 -3.33226,0 -4.99839,3.33226 -4.99839,9.99678 0,6.66453 1.66613,9.99679 4.99839,9.99679 3.33226,0 4.99839,-3.33226 4.99839,-9.99679 z m -10.71711,-210.805 c 0.80214,-30.34683 0.16941,-35.78229 -4.16533,-35.78229 -2.81112,0 -5.11112,-1.49951 -5.11112,-3.33226 0,-1.83274 -4.49855,-3.33226 -9.99678,-3.33226 h -9.99679 v -59.59204 c 0,-56.33256 0.35633,-59.68523 6.51463,-61.29566 5.87138,-1.5354 6.61169,0.31812 7.49759,18.77185 l 0.98296,20.47547 40.59736,-0.0549 c 22.32855,-0.0302 41.45542,-0.9129 42.50412,-1.9616 1.0487,-1.0487 0.11613,-24.64141 -2.07233,-52.42824 L 555.2295,269.91311 H 397.57613 239.92277 v 46.4271 c 0,53.74373 -4.13377,48.67258 42.48632,52.12063 l 30.82341,2.27972 v -18.75725 c 0,-18.61987 0.0732,-18.75724 9.99679,-18.75724 h 9.99678 v 63.31295 63.31295 h -9.99678 c -5.49823,0 -9.99679,1.49952 -9.99679,3.33226 0,1.83275 -2.24927,3.33227 -4.99839,3.33227 -4.09225,0 -4.99839,5.73889 -4.99839,31.65647 0,17.41106 0.37488,31.85152 0.83307,32.08987 1.09337,0.56879 175.94356,5.14115 182.44127,4.77083 4.05236,-0.23092 5.1774,-7.05729 5.94419,-36.06715 z"
       id="path1"
       transform="scale(0.26458333)" /><path
       style="fill:#00ffff;stroke-width:3.33226"
       d="m 389.44153,1006.4119 -145.38632,-1.7353 -16.22833,-15.1329 C 218.9013,981.22061 203.135,968.03949 192.79065,960.25229 l -18.8079,-14.15854 -1.98401,-57.34737 c -1.8089,-52.28587 -8.8381,-614.46465 -8.75372,-700.10182 l 0.0357,-36.28304 174.11062,2.96043 c 95.76084,1.62824 199.22754,2.96043 229.92599,2.96043 h 55.81537 l -0.1077,204.93403 c -0.12116,230.54333 -5.06207,575.37302 -8.36771,583.98732 -3.23899,8.44071 -68.81791,62.59257 -74.72881,61.70737 -2.80536,-0.4201 -70.52453,-1.5447 -150.487,-2.4992 z m 52.58486,-197.91496 c 7.86968,1.97514 8.22834,1.43701 7.22181,-10.83557 -0.97388,-11.87438 -1.93095,-12.99805 -11.88899,-13.95818 -10.5441,-1.01664 -10.82984,-0.70157 -10.82984,11.94059 0,12.66133 3.68002,21.38292 6.03781,14.30956 0.67028,-2.01082 4.74845,-2.63875 9.45921,-1.4564 z m -42.15511,-7.25429 c 0,-5.40706 -1.96954,-8.29517 -5.83145,-8.55115 -5.55377,-0.36815 -5.55377,-0.45912 0,-1.91049 10.17601,-2.65924 6.2901,-7.69975 -5.93604,-7.69975 -7.74171,0 -12.47157,1.83478 -13.82553,5.36314 -1.89156,4.92935 -2.30079,4.92935 -5.05938,0 -4.49341,-8.02928 -13.18332,-6.48711 -21.4159,3.80058 l -7.33314,9.16371 -2.317,-9.16371 c -3.59764,-14.22866 -11.59129,-11.6078 -11.59129,3.80037 v 12.9641 l 36.65486,0.1989 36.65487,0.1989 z m 22.30052,-4.83235 c 0,-12.42843 -0.64082,-13.32904 -9.48413,-13.32904 -8.84331,0 -9.48413,0.90061 -9.48413,13.32904 0,12.42843 0.64082,13.32904 9.48413,13.32904 8.84331,0 9.48413,-0.90061 9.48413,-13.32904 z m -98.94251,-3.33226 c 0,-2.06283 -17.77206,-3.33226 -46.65165,-3.33226 -28.8796,0 -46.65165,1.26943 -46.65165,3.33226 0,2.06284 17.77205,3.33226 46.65165,3.33226 28.87959,0 46.65165,-1.26942 46.65165,-3.33226 z m 226.59372,0 c 0,-2.06283 -17.77204,-3.33226 -46.65165,-3.33226 -28.87959,0 -46.65165,1.26943 -46.65165,3.33226 0,2.06284 17.77206,3.33226 46.65165,3.33226 28.87961,0 46.65165,-1.26942 46.65165,-3.33226 z M 304.56916,733.23431 c 1.20562,-9.08841 3.64808,-17.42423 5.42769,-18.52411 1.77961,-1.09984 3.23565,-4.16053 3.23565,-6.80148 0,-3.54056 -4.37604,-4.80172 -16.6613,-4.80172 -12.28526,0 -16.6613,1.26116 -16.6613,4.80172 0,2.64095 1.45604,5.70164 3.23565,6.80148 1.77961,1.09988 4.22207,9.4357 5.42769,18.52411 1.67802,12.64956 3.55346,16.52434 7.99796,16.52434 4.4445,0 6.31994,-3.87478 7.99796,-16.52434 z m 38.65369,11.75051 c 0,-2.62562 -3.27936,-5.81466 -7.28746,-7.08678 -6.66789,-2.11632 -6.80954,-2.66241 -1.66613,-6.42337 6.16342,-4.50681 7.57122,-11.70636 2.28907,-11.70636 -1.83274,0 -3.33226,-1.49952 -3.33226,-3.33226 0,-1.83275 2.24927,-3.33226 4.99839,-3.33226 2.74911,0 4.99839,-2.24928 4.99839,-4.9984 0,-3.60993 -3.70251,-4.99839 -13.32904,-4.99839 h -13.32905 v 23.32583 23.32582 h 13.32905 c 9.34787,0 13.32904,-1.42587 13.32904,-4.77383 z m 14.52491,-2.72375 1.97317,-7.49759 5.26895,7.49759 c 2.89793,4.12367 8.18297,7.49758 11.74453,7.49758 5.79586,0 6.47557,-2.44838 6.47557,-23.32582 0,-17.63852 -1.12395,-23.32583 -4.60975,-23.32583 -2.53536,0 -5.49767,3.37392 -6.58291,7.49759 l -1.97316,7.49759 -5.26895,-7.49759 c -2.89793,-4.12367 -8.18297,-7.49759 -11.74453,-7.49759 -5.79586,0 -6.47557,2.44838 -6.47557,23.32583 0,17.63852 1.12395,23.32582 4.60975,23.32582 2.53535,0 5.49766,-3.37391 6.5829,-7.49758 z m 42.12352,2.49919 c 0,-2.74911 1.33909,-4.99839 2.97575,-4.99839 1.63666,0 3.83887,2.24928 4.8938,4.99839 1.05494,2.74912 4.96417,4.99839 8.68717,4.99839 6.15929,0 6.76911,-2.10139 6.76911,-23.32582 0,-17.71633 -1.1163,-23.32583 -4.64188,-23.32583 -2.55303,0 -5.65291,2.62416 -6.88862,5.83146 -2.13975,5.55378 -2.40263,5.55378 -5.52048,0 -1.80056,-3.2073 -6.19827,-5.83146 -9.77269,-5.83146 -5.8248,0 -6.49894,2.41962 -6.49894,23.32583 0,18.51257 1.03141,23.32582 4.99839,23.32582 2.74912,0 4.99839,-2.24927 4.99839,-4.99839 z m 56.64843,0.35652 c 0,-2.55304 -2.62415,-5.65918 -5.83145,-6.90251 -5.55377,-2.15301 -5.55377,-2.46514 0,-6.55532 3.2073,-2.36211 5.83145,-6.00381 5.83145,-8.09267 0,-2.08889 -2.62415,-3.90337 -5.83145,-4.0322 -4.98653,-0.20027 -4.86582,-0.64916 0.83306,-3.09803 15.63523,-6.71871 18.32744,-4.51598 18.32744,14.99517 0,13.30422 1.2523,18.32743 4.56909,18.32743 2.96166,0 5.34026,-5.81336 6.76113,-16.52434 1.20561,-9.08841 3.64807,-17.42423 5.42768,-18.52411 1.77962,-1.09984 3.23566,-4.16053 3.23566,-6.80148 0,-3.8251 -6.09967,-4.80172 -29.99035,-4.80172 h -29.99034 v 23.32583 23.32582 h 13.32904 c 9.17154,0 13.32904,-1.44786 13.32904,-4.64187 z m 75.98888,-7.43614 c 0.61493,-6.32033 -1.11545,-12.54033 -4.40335,-15.82824 -5.00029,-5.00029 -4.99536,-5.41635 0.0644,-5.41635 3.42606,0 5.0597,-2.18617 4.3577,-5.83146 -0.81344,-4.22391 -4.32558,-5.83146 -12.74034,-5.83146 -10.91535,0 -11.67764,0.71974 -12.6167,11.91254 -0.81207,9.67948 0.43719,12.60424 6.66452,15.60271 l 7.66397,3.69018 -7.49759,0.22552 c -5.27634,0.15872 -7.49759,2.25958 -7.49759,7.09122 0,5.896 1.76484,6.7196 12.49598,5.83146 11.2936,-0.93474 12.59345,-2.03608 13.50899,-11.44612 z m -29.33723,-27.90912 c 0,-6.66452 -1.66613,-9.99678 -4.99839,-9.99678 -3.33226,0 -4.99839,3.33226 -4.99839,9.99678 0,6.66453 1.66613,9.99679 4.99839,9.99679 3.33226,0 4.99839,-3.33226 4.99839,-9.99679 z M 492.46677,499.88599 c 1.06396,-38.79334 -1.09061,-43.36628 -20.43201,-43.36628 h -9.86926 l 2.32213,-57.20389 c 1.27718,-31.46215 3.19335,-58.61355 4.25816,-60.33646 3.58223,-5.79616 7.66495,5.75786 7.71646,21.83742 l 0.051,15.92779 42.48632,-0.93262 42.48632,-0.93262 -0.64755,-34.98874 c -0.35616,-19.24381 -1.58869,-42.8612 -2.73899,-52.48311 l -2.09139,-17.49437 H 397.96537 239.92277 l 0.051,44.15246 c 0.0281,24.28385 1.26569,46.06648 2.75028,48.40585 1.4846,2.33937 10.08386,4.91913 19.10948,5.7328 9.02561,0.81366 24.08494,2.17948 33.46518,3.03514 l 17.05497,1.55576 2.01745,-17.03424 c 1.94319,-16.40713 5.84251,-22.37541 14.68958,-22.48379 3.1879,-0.039 4.16533,14.80586 4.16533,63.26193 v 63.31295 h -8.54972 c -19.34959,0 -21.44063,3.903 -21.44063,40.01975 v 33.12074 l 52.48311,1.0553 c 28.86571,0.58041 71.22707,0.99334 94.13636,0.91767 l 41.65326,-0.13759 z"
       id="path2"
       transform="scale(0.26458333)" /><path
       style="fill:#00ffff;stroke-width:3.33226"
       d="m 389.44153,1006.4119 -145.38632,-1.7353 -16.22833,-15.1329 C 218.9013,981.22061 203.135,968.03949 192.79065,960.25229 l -18.8079,-14.15854 -1.9861,-57.34737 c -1.85869,-53.66839 -8.84646,-609.67939 -8.7567,-696.76298 l 0.0408,-39.60871 175.77675,2.95385 c 96.67722,1.62461 200.14391,2.95384 229.92599,2.95384 h 54.14924 l -0.10274,206.60016 c -0.11463,230.55359 -5.054,573.67294 -8.38316,582.34861 -3.2315,8.42116 -68.81875,62.56345 -74.71832,61.67995 -2.80536,-0.4201 -70.52453,-1.5447 -150.487,-2.4992 z m 52.58486,-197.91496 c 7.86968,1.97514 8.22834,1.43701 7.22181,-10.83557 -0.97388,-11.87438 -1.93095,-12.99805 -11.88899,-13.95818 -10.5441,-1.01664 -10.82984,-0.70157 -10.82984,11.94059 0,12.66133 3.68002,21.38292 6.03781,14.30956 0.67028,-2.01082 4.74845,-2.63875 9.45921,-1.4564 z m -42.15511,-7.25429 c 0,-5.40706 -1.96954,-8.29517 -5.83145,-8.55115 -5.55377,-0.36815 -5.55377,-0.45912 0,-1.91049 10.17601,-2.65924 6.2901,-7.69975 -5.93604,-7.69975 -7.74171,0 -12.47157,1.83478 -13.82553,5.36314 -1.89156,4.92935 -2.30079,4.92935 -5.05938,0 -4.49341,-8.02928 -13.18332,-6.48711 -21.4159,3.80058 l -7.33314,9.16371 -2.317,-9.16371 c -3.59764,-14.22866 -11.59129,-11.6078 -11.59129,3.80037 v 12.9641 l 36.65486,0.1989 36.65487,0.1989 z m 22.30052,-4.83235 c 0,-12.42843 -0.64082,-13.32904 -9.48413,-13.32904 -8.84331,0 -9.48413,0.90061 -9.48413,13.32904 0,12.42843 0.64082,13.32904 9.48413,13.32904 8.84331,0 9.48413,-0.90061 9.48413,-13.32904 z m -98.94251,-3.33226 c 0,-2.06283 -17.77206,-3.33226 -46.65165,-3.33226 -28.8796,0 -46.65165,1.26943 -46.65165,3.33226 0,2.06284 17.77205,3.33226 46.65165,3.33226 28.87959,0 46.65165,-1.26942 46.65165,-3.33226 z m 226.59372,0 c 0,-2.06283 -17.77204,-3.33226 -46.65165,-3.33226 -28.87959,0 -46.65165,1.26943 -46.65165,3.33226 0,2.06284 17.77206,3.33226 46.65165,3.33226 28.87961,0 46.65165,-1.26942 46.65165,-3.33226 z M 304.56916,733.23431 c 1.20562,-9.08841 3.64808,-17.42423 5.42769,-18.52411 1.77961,-1.09984 3.23565,-4.16053 3.23565,-6.80148 0,-3.54056 -4.37604,-4.80172 -16.6613,-4.80172 -18.16394,0 -19.09664,1.23317 -11.68344,15.44733 2.73782,5.24954 4.9871,14.41806 4.99839,20.37448 0.0158,8.35247 1.44686,10.82984 6.25575,10.82984 4.95918,0 6.68383,-3.38171 8.42726,-16.52434 z m 38.65369,11.91459 c 0,-2.53535 -3.37391,-5.55904 -7.49759,-6.71927 -7.00015,-1.9696 -7.11069,-2.40666 -1.66613,-6.58748 6.34695,-4.87376 7.83732,-12.07384 2.4992,-12.07384 -1.83274,0 -3.33226,-1.49952 -3.33226,-3.33226 0,-1.83275 2.24927,-3.33226 4.99839,-3.33226 2.74911,0 4.99839,-2.24928 4.99839,-4.9984 0,-3.60993 -3.70251,-4.99839 -13.32904,-4.99839 h -13.32905 v 23.32583 23.32582 h 13.32905 c 9.12708,0 13.32904,-1.45323 13.32904,-4.60975 z m 14.52491,-2.88783 1.97317,-7.49759 5.26895,7.49759 c 2.89793,4.12367 8.18297,7.49758 11.74453,7.49758 5.79586,0 6.47557,-2.44838 6.47557,-23.32582 0,-17.63852 -1.12395,-23.32583 -4.60975,-23.32583 -2.53536,0 -5.49767,3.37392 -6.58291,7.49759 l -1.97316,7.49759 -5.26895,-7.49759 c -2.89793,-4.12367 -8.18297,-7.49759 -11.74453,-7.49759 -5.79586,0 -6.47557,2.44838 -6.47557,23.32583 0,17.63852 1.12395,23.32582 4.60975,23.32582 2.53535,0 5.49766,-3.37391 6.5829,-7.49758 z m 42.12352,2.49919 c 0,-2.74911 1.33909,-4.99839 2.97575,-4.99839 1.63666,0 3.83887,2.24928 4.8938,4.99839 1.05494,2.74912 4.96417,4.99839 8.68717,4.99839 6.15929,0 6.76911,-2.10139 6.76911,-23.32582 0,-18.51258 -1.03142,-23.32583 -4.99839,-23.32583 -2.74912,0 -4.9984,2.24928 -4.9984,4.99839 0,2.74912 -1.33908,4.9984 -2.97574,4.9984 -1.63666,0 -3.83888,-2.24928 -4.89381,-4.9984 -1.05494,-2.74911 -4.96416,-4.99839 -8.68717,-4.99839 -6.15928,0 -6.7691,2.10139 -6.7691,23.32583 0,18.51257 1.03141,23.32582 4.99839,23.32582 2.74912,0 4.99839,-2.24927 4.99839,-4.99839 z m 56.64843,0.35652 c 0,-2.55304 -2.62415,-5.65918 -5.83145,-6.90251 -5.55377,-2.15301 -5.55377,-2.46514 0,-6.55532 3.2073,-2.36211 5.83145,-6.00381 5.83145,-8.09267 0,-2.08889 -2.62415,-3.90337 -5.83145,-4.0322 -4.98653,-0.20027 -4.86582,-0.64916 0.83306,-3.09803 15.63523,-6.71871 18.32744,-4.51598 18.32744,14.99517 0,13.30422 1.2523,18.32743 4.56909,18.32743 2.96166,0 5.34026,-5.81336 6.76113,-16.52434 1.20561,-9.08841 3.64807,-17.42423 5.42768,-18.52411 1.77962,-1.09984 3.23566,-4.16053 3.23566,-6.80148 0,-3.8251 -6.09967,-4.80172 -29.99035,-4.80172 h -29.99034 v 23.32583 23.32582 h 13.32904 c 9.17154,0 13.32904,-1.44786 13.32904,-4.64187 z m 76.05872,-6.48265 c 0.64049,-5.59486 -1.27189,-12.06035 -4.68179,-15.82823 -5.46068,-6.034 -5.46095,-6.36985 -0.005,-6.36985 3.69124,0 5.35594,-2.0939 4.63614,-5.83146 -0.81344,-4.22391 -4.32558,-5.83146 -12.74034,-5.83146 -10.59688,0 -11.70686,0.92311 -12.63756,10.50975 -0.76469,7.87647 0.88218,11.84229 6.57288,15.82824 l 7.59323,5.31849 h -7.40595 c -5.25681,0 -7.40599,1.99239 -7.40599,6.86569 0,5.896 1.76484,6.7196 12.49598,5.83146 10.95354,-0.90658 12.62964,-2.20173 13.57883,-10.49263 z m -29.40707,-28.86261 c 0,-6.66452 -1.66613,-9.99678 -4.99839,-9.99678 -3.33226,0 -4.99839,3.33226 -4.99839,9.99678 0,6.66453 1.66613,9.99679 4.99839,9.99679 3.33226,0 4.99839,-3.33226 4.99839,-9.99679 z M 492.46677,499.88599 c 1.06406,-38.7977 -1.08964,-43.36628 -20.44359,-43.36628 h -9.88084 l 2.24309,-57.05726 c 1.2337,-31.38149 3.15508,-58.5329 4.26974,-60.33645 3.68421,-5.96118 7.75473,5.34813 7.80708,21.69078 l 0.051,15.92779 42.48632,-0.93262 42.48632,-0.93262 -0.7175,-34.98874 c -0.39464,-19.24381 -1.62717,-42.8612 -2.73898,-52.48311 l -2.02145,-17.49437 H 397.96537 239.92277 v 44.57751 c 0,33.37235 1.13151,45.51657 4.50151,48.31342 4.28943,3.55991 12.07754,4.84903 50.87446,8.4209 l 17.05497,1.57018 2.01745,-17.03424 c 1.94319,-16.40713 5.84251,-22.37541 14.68958,-22.48379 3.1879,-0.039 4.16533,14.80586 4.16533,63.26193 v 63.31295 h -8.54972 c -19.34959,0 -21.44063,3.903 -21.44063,40.01975 v 33.12074 l 52.48311,1.0553 c 28.86571,0.58041 71.22707,0.99334 94.13636,0.91767 l 41.65326,-0.13759 z"
       id="path3"
       transform="scale(0.26458333)" /><path
       style="fill:#00ffff;stroke-width:3.33226"
       d="m 379.85621,1006.4166 -134.97806,-1.74 -25.03801,-21.6597 c -13.77091,-11.91283 -30.04796,-25.44028 -36.17121,-30.06099 l -11.1332,-8.40133 -2.70833,-188.20205 c -1.48959,-103.51115 -3.77403,-281.742 -5.07653,-396.06858 l -2.3682,-207.86649 182.89032,2.93246 c 100.58968,1.61286 204.25945,2.93246 230.37727,2.93246 h 47.48695 l -0.0948,209.93242 c -0.10457,231.50385 -5.04481,570.2845 -8.44535,579.14618 -1.19348,3.1102 -17.27437,18.40317 -35.73527,33.98446 -32.2928,27.25556 -34.14274,28.30076 -48.79639,27.57036 -8.3771,-0.4176 -75.97122,-1.5423 -150.20916,-2.4992 z m 62.17018,-197.91966 c 7.86968,1.97514 8.22834,1.43701 7.22181,-10.83557 -0.97388,-11.87438 -1.93095,-12.99805 -11.88899,-13.95818 -10.5441,-1.01664 -10.82984,-0.70157 -10.82984,11.94059 0,12.66133 3.68002,21.38292 6.03781,14.30956 0.67028,-2.01082 4.74845,-2.63875 9.45921,-1.4564 z m -42.15511,-7.25429 c 0,-5.40706 -1.96954,-8.29517 -5.83145,-8.55115 -5.55377,-0.36815 -5.55377,-0.45912 0,-1.91049 10.17601,-2.65924 6.2901,-7.69975 -5.93604,-7.69975 -7.74171,0 -12.47157,1.83478 -13.82553,5.36314 -1.89156,4.92935 -2.30079,4.92935 -5.05938,0 -4.49341,-8.02928 -13.18332,-6.48711 -21.4159,3.80058 l -7.33314,9.16371 -2.317,-9.16371 c -3.59764,-14.22866 -11.59129,-11.6078 -11.59129,3.80037 v 12.9641 l 36.65486,0.1989 36.65487,0.1989 z m 22.30052,-4.83235 c 0,-12.42843 -0.64082,-13.32904 -9.48413,-13.32904 -8.84331,0 -9.48413,0.90061 -9.48413,13.32904 0,12.42843 0.64082,13.32904 9.48413,13.32904 8.84331,0 9.48413,-0.90061 9.48413,-13.32904 z m -98.94251,-3.33226 c 0,-2.06283 -17.77206,-3.33226 -46.65165,-3.33226 -28.8796,0 -46.65165,1.26943 -46.65165,3.33226 0,2.06284 17.77205,3.33226 46.65165,3.33226 28.87959,0 46.65165,-1.26942 46.65165,-3.33226 z m 226.59372,0 c 0,-2.06283 -17.77204,-3.33226 -46.65165,-3.33226 -28.87959,0 -46.65165,1.26943 -46.65165,3.33226 0,2.06284 17.77206,3.33226 46.65165,3.33226 28.87961,0 46.65165,-1.26942 46.65165,-3.33226 z M 304.30919,732.83767 c 1.56621,-8.10453 4.21469,-16.16004 5.88549,-17.90114 7.46731,-7.78153 2.80543,-11.82953 -13.62348,-11.82953 -18.16394,0 -19.09664,1.23317 -11.68344,15.44733 2.73782,5.24954 4.9871,13.41838 4.99839,18.15296 0.0458,19.20535 10.5061,16.39892 14.42304,-3.86962 z m 38.91366,12.31123 c 0,-2.53535 -3.37391,-5.55904 -7.49759,-6.71927 -7.00015,-1.9696 -7.11069,-2.40666 -1.66613,-6.58748 6.34695,-4.87376 7.83732,-12.07384 2.4992,-12.07384 -1.83274,0 -3.33226,-1.49952 -3.33226,-3.33226 0,-1.83275 2.24927,-3.33226 4.99839,-3.33226 2.74911,0 4.99839,-2.24928 4.99839,-4.9984 0,-3.60993 -3.70251,-4.99839 -13.32904,-4.99839 h -13.32905 v 23.32583 23.32582 h 13.32905 c 9.12708,0 13.32904,-1.45323 13.32904,-4.60975 z m 14.52491,-2.88783 1.97317,-7.49759 5.26895,7.49759 c 2.89793,4.12367 8.18297,7.49758 11.74453,7.49758 5.79586,0 6.47557,-2.44838 6.47557,-23.32582 0,-17.63852 -1.12395,-23.32583 -4.60975,-23.32583 -2.53536,0 -5.49767,3.37392 -6.58291,7.49759 l -1.97316,7.49759 -5.26895,-7.49759 c -2.89793,-4.12367 -8.18297,-7.49759 -11.74453,-7.49759 -5.79586,0 -6.47557,2.44838 -6.47557,23.32583 0,17.63852 1.12395,23.32582 4.60975,23.32582 2.53535,0 5.49766,-3.37391 6.5829,-7.49758 z m 42.12352,2.49919 c 0,-2.74911 1.33909,-4.99839 2.97575,-4.99839 1.63666,0 3.83887,2.24928 4.8938,4.99839 1.05494,2.74912 4.96417,4.99839 8.68717,4.99839 6.15929,0 6.76911,-2.10139 6.76911,-23.32582 0,-18.51258 -1.03142,-23.32583 -4.99839,-23.32583 -2.74912,0 -4.9984,2.24928 -4.9984,4.99839 0,2.74912 -1.33908,4.9984 -2.97574,4.9984 -1.63666,0 -3.83888,-2.24928 -4.89381,-4.9984 -1.05494,-2.74911 -4.96416,-4.99839 -8.68717,-4.99839 -6.15928,0 -6.7691,2.10139 -6.7691,23.32583 0,18.51257 1.03141,23.32582 4.99839,23.32582 2.74912,0 4.99839,-2.24927 4.99839,-4.99839 z m 56.64843,0.35652 c 0,-2.55304 -2.62415,-5.65918 -5.83145,-6.90251 -5.55377,-2.15301 -5.55377,-2.46514 0,-6.55532 3.2073,-2.36211 5.83145,-6.00381 5.83145,-8.09267 0,-2.08889 -2.62415,-3.90337 -5.83145,-4.0322 -4.98653,-0.20027 -4.86582,-0.64916 0.83306,-3.09803 15.68473,-6.73997 18.32744,-4.53771 18.32744,15.27285 0,22.69652 6.76884,23.3867 11.07024,1.12877 1.56622,-8.10453 4.21469,-16.16004 5.88549,-17.90114 1.67081,-1.74111 3.03783,-5.11502 3.03783,-7.49759 0,-3.23352 -7.60439,-4.33194 -29.99035,-4.33194 h -29.99034 v 23.32583 23.32582 h 13.32904 c 9.17154,0 13.32904,-1.44786 13.32904,-4.64187 z m 76.05872,-6.48265 c 0.64049,-5.59486 -1.27189,-12.06035 -4.68179,-15.82823 -5.27301,-5.8266 -5.2943,-6.36985 -0.24979,-6.36985 8.6915,0 6.42753,-9.64073 -2.80833,-11.95879 -12.55519,-3.15115 -18.3349,0.52607 -18.3349,11.66525 0,6.46568 2.57517,11.71616 7.40599,15.09977 l 7.40595,5.18733 h -7.40595 c -5.25681,0 -7.40599,1.99239 -7.40599,6.86569 0,5.896 1.76484,6.7196 12.49598,5.83146 10.95354,-0.90658 12.62964,-2.20173 13.57883,-10.49263 z m -29.40707,-28.86261 c 0,-6.66452 -1.66613,-9.99678 -4.99839,-9.99678 -3.33226,0 -4.99839,3.33226 -4.99839,9.99678 0,6.66453 1.66613,9.99679 4.99839,9.99679 3.33226,0 4.99839,-3.33226 4.99839,-9.99679 z M 491.15193,531.22303 c 1.11248,-2.899 2.02265,-18.15099 2.02265,-33.89329 0,-32.51995 -4.27292,-40.81003 -21.03452,-40.81003 h -10.00482 l 2.1482,-56.89799 c 1.18151,-31.29389 3.1045,-58.4453 4.27329,-60.33645 3.79469,-6.13993 7.85228,4.91133 7.90552,21.53151 l 0.051,15.92779 42.48632,-0.93262 42.48632,-0.93262 -0.77728,-34.98874 c -0.42749,-19.24381 -1.66003,-42.8612 -2.73898,-52.48311 l -1.96167,-17.49437 H 397.96537 239.92277 v 44.57751 c 0,33.37235 1.13151,45.51657 4.50151,48.31342 4.29014,3.5605 12.05849,4.84609 50.90958,8.42506 l 17.09009,1.57434 1.61539,-16.81161 c 1.54108,-16.03835 5.88218,-22.60278 15.0214,-22.71474 3.1879,-0.039 4.16533,14.80586 4.16533,63.26193 v 63.31295 h -8.90133 c -17.23048,0 -21.08902,7.70045 -21.08902,42.08719 v 31.05747 l 54.14924,1.00411 c 29.78208,0.55229 71.60813,1.3392 92.94678,1.7487 32.75782,0.62863 39.11242,-0.076 40.82019,-4.52641 z"
       id="path4"
       transform="scale(0.26458333)" /><path
       style="fill:#00ffff;stroke-width:3.33226"
       d="m 373.2132,1006.42 -128.29204,-1.7434 -35.50066,-29.79085 -35.50066,-29.79084 -1.94789,-50.18342 c -1.90055,-48.96373 -8.82147,-599.28373 -8.73477,-694.54852 l 0.0436,-47.89046 190.77193,2.90494 c 104.92456,1.59771 208.39242,2.90493 229.92862,2.90493 h 39.15666 l -0.0848,213.26469 c -0.0921,231.59754 -5.02831,566.88112 -8.47827,575.87152 -1.18132,3.07851 -17.25224,18.34556 -35.71314,33.92685 l -33.56529,28.32956 -21.89562,-0.7558 c -12.04259,-0.4157 -79.62703,-1.5403 -150.18765,-2.4992 z m 26.65808,-205.17735 c 0,-5.40706 -1.96954,-8.29517 -5.83145,-8.55115 -5.55377,-0.36815 -5.55377,-0.45912 0,-1.91049 10.17601,-2.65924 6.2901,-7.69975 -5.93604,-7.69975 -7.74171,0 -12.47157,1.83478 -13.82553,5.36314 -1.89156,4.92935 -2.30079,4.92935 -5.05938,0 -4.35553,-7.78289 -11.24997,-6.60048 -20.655,3.54243 l -8.25772,8.9056 -2.27159,-9.05072 c -3.10561,-12.37375 -9.58301,-9.20471 -10.8193,5.29333 l -1.0124,11.87247 36.83421,0.19987 36.8342,0.19987 z m 21.6597,-4.83235 c 0,-10.24607 -1.11325,-11.791 -9.16372,-12.7173 -8.68867,-0.99975 -9.16372,-0.34049 -9.16372,12.7173 0,13.0578 0.47505,13.71705 9.16372,12.71731 8.05047,-0.9263 9.16372,-2.47124 9.16372,-12.71731 z m 28.32421,3.66889 c 0,-11.02085 -5.50717,-16.99793 -15.66162,-16.99793 -6.65348,0 -7.6642,1.6707 -7.6642,12.66862 0,12.19398 0.43699,12.68102 11.66291,12.99922 10.532,0.29857 11.66291,-0.54213 11.66291,-8.66991 z m -129.95816,-7.00115 c 0,-2.05061 -16.66131,-3.33226 -43.31939,-3.33226 -26.65809,0 -43.31939,1.28165 -43.31939,3.33226 0,2.05061 16.6613,3.33226 43.31939,3.33226 26.65808,0 43.31939,-1.28165 43.31939,-3.33226 z m 226.59372,0 c 0,-2.05061 -16.6613,-3.33226 -43.31939,-3.33226 -26.65808,0 -43.31939,1.28165 -43.31939,3.33226 0,2.05061 16.66131,3.33226 43.31939,3.33226 26.65809,0 43.31939,-1.28165 43.31939,-3.33226 z M 304.34608,732.83767 c 1.58651,-8.10453 4.36408,-16.54421 6.17237,-18.75487 5.59489,-6.83976 -0.36283,-10.9758 -15.81004,-10.9758 -16.25672,0 -17.14681,1.40005 -9.82065,15.44733 2.73782,5.24954 4.9871,13.41838 4.99839,18.15296 0.0458,19.19695 10.49173,16.40152 14.45993,-3.86962 z m 38.87677,12.31123 c 0,-2.53535 -3.2897,-5.47 -7.31044,-6.52146 -7.26601,-1.90009 -7.27107,-1.95607 -0.83307,-9.20614 4.63867,-5.22379 5.29498,-7.70799 2.31205,-8.75138 -5.82272,-2.03671 -5.2139,-7.56613 0.83307,-7.56613 2.74911,0 4.99839,-2.24928 4.99839,-4.9984 0,-3.60993 -3.70251,-4.99839 -13.32904,-4.99839 h -13.32905 v 23.32583 23.32582 h 13.32905 c 9.12708,0 13.32904,-1.45323 13.32904,-4.60975 z m 13.32904,-2.05477 c 0,-3.66549 1.13882,-6.66452 2.5307,-6.66452 1.39188,0 4.40362,2.99903 6.69276,6.66452 2.28913,3.66549 7.2169,6.66452 10.9506,6.66452 6.24986,0 6.71035,-1.76373 5.80321,-22.22718 -0.62383,-14.07273 -2.51344,-22.73211 -5.15064,-23.60353 -2.43978,-0.80614 -4.16532,1.49958 -4.16532,5.56591 0,8.77081 -3.84707,8.88664 -9.22346,0.27767 -2.28913,-3.66548 -7.14839,-6.66452 -10.79835,-6.66452 -5.92831,0 -6.63628,2.25145 -6.63628,21.10431 0,11.6074 0.99968,22.10402 2.22151,23.32582 4.22461,4.22461 7.77527,2.19566 7.77527,-4.443 z m 43.31939,1.66613 c 0,-2.74911 1.33909,-4.99839 2.97575,-4.99839 1.63666,0 3.83887,2.24928 4.8938,4.99839 1.05494,2.74912 5.03268,4.99839 8.83942,4.99839 6.41369,0 6.84908,-1.63034 5.93604,-22.22718 -0.62383,-14.07273 -2.51344,-22.73211 -5.15064,-23.60353 -2.29093,-0.75696 -4.16533,0.99791 -4.16533,3.89978 0,6.69064 -5.33641,6.87895 -7.86955,0.27767 -1.05494,-2.74911 -4.96416,-4.99839 -8.68717,-4.99839 -6.09143,0 -6.7691,2.11282 -6.7691,21.10431 0,11.6074 0.99968,22.10402 2.22151,23.32582 3.83421,3.83424 7.77527,2.42669 7.77527,-2.77687 z m 56.64843,0.35652 c 0,-2.55304 -2.62415,-5.65918 -5.83145,-6.90251 -5.55377,-2.15301 -5.55377,-2.46514 0,-6.55532 3.2073,-2.36211 5.83145,-6.00381 5.83145,-8.09267 0,-2.08889 -2.62415,-3.82093 -5.83145,-3.84899 -4.98356,-0.0436 -5.10468,-0.5207 -0.83307,-3.28124 2.74912,-1.77663 8.29394,-3.25319 12.32184,-3.28125 6.49301,-0.0452 7.43765,1.93271 8.33065,17.44335 1.20156,20.87022 6.5581,21.80662 10.50226,1.83598 1.55679,-7.88256 4.31004,-16.14067 6.11833,-18.35133 6.55138,-8.00909 -1.3248,-10.9758 -29.13909,-10.9758 h -28.12755 v 23.32583 23.32582 h 13.32904 c 9.17154,0 13.32904,-1.44786 13.32904,-4.64187 z m 71.37106,2.61922 c 6.90315,-2.64898 6.75973,-17.46717 -0.24392,-25.20612 -5.13161,-5.67037 -5.13161,-6.09383 0,-6.09383 7.77756,0 6.87909,-9.1147 -1.14966,-11.66292 -3.66549,-1.16339 -9.66356,-1.16339 -13.32905,0 -9.45159,2.99984 -8.985,19.65644 0.74147,26.46915 l 7.40595,5.18733 h -7.40595 c -5.18447,0 -7.40599,1.99909 -7.40599,6.66452 0,6.86396 9.96203,9.0261 21.38715,4.64187 z m -24.71941,-37.96448 c 0,-6.66452 -1.66613,-9.99678 -4.99839,-9.99678 -3.33226,0 -4.99839,3.33226 -4.99839,9.99678 0,6.66453 1.66613,9.99679 4.99839,9.99679 3.33226,0 4.99839,-3.33226 4.99839,-9.99679 z M 491.15193,531.22303 c 1.11248,-2.899 2.02265,-18.15099 2.02265,-33.89329 0,-32.51795 -4.27306,-40.81003 -21.03015,-40.81003 h -10.00044 l 2.03797,-56.72671 c 1.12089,-31.19969 3.0419,-58.35109 4.26892,-60.33645 3.91322,-6.33173 7.9572,4.45047 8.01137,21.36023 l 0.051,15.92779 42.48632,-0.93262 42.48632,-0.93262 -0.85259,-31.65648 c -0.46895,-17.41106 -1.71291,-41.02846 -2.76444,-52.48311 l -1.91182,-20.82663 H 397.93992 239.92277 v 41.87233 c 0,23.02978 1.49417,44.66422 3.32038,48.07652 2.41322,4.50913 8.55852,6.74589 22.49276,8.18688 10.54481,1.09047 25.54533,2.66987 33.33449,3.50977 l 14.1621,1.52709 v -11.38224 c 0,-16.89434 5.38798,-28.47739 13.24657,-28.47739 6.53775,0 6.747,1.96352 6.747,63.31295 v 63.31295 h -8.90133 c -17.23099,0 -21.08902,7.70014 -21.08902,42.09102 v 31.06134 l 57.4815,0.99581 c 31.61482,0.54769 73.44087,1.33284 92.94678,1.7448 29.72375,0.62777 35.79274,-0.1043 37.48793,-4.52191 z"
       id="path5"
       transform="scale(0.26458333)" /><path
       style="fill:#00ffff;stroke-width:3.33226"
       d="m 365.52715,1007.1769 -119.31677,-0.9188 -23.99155,-20.78429 c -13.19535,-11.43139 -29.80051,-25.38076 -36.90034,-30.99862 l -12.90878,-10.21428 -2.63008,-174.72619 c -1.44654,-96.0994 -3.71501,-274.23462 -5.04104,-395.85607 l -2.41096,-221.12989 201.24528,2.86681 c 110.6849,1.57675 214.36648,2.86681 230.40352,2.86681 h 29.15828 l -0.0965,218.26308 c -0.10556,238.8989 -4.93337,561.67419 -8.54168,571.07733 -1.25333,3.26615 -17.35068,18.56403 -35.77182,33.99533 l -33.49305,28.05688 -30.19388,-0.7896 c -16.60662,-0.4343 -83.88643,-1.2031 -149.51066,-1.7085 z m 34.34413,-204.10254 c 0,-3.48308 -2.62415,-7.86134 -5.83145,-9.7294 -5.55377,-3.2348 -5.55377,-3.40134 0,-3.49785 3.2073,-0.0557 5.83145,-1.60085 5.83145,-3.43359 0,-5.15624 -18.91739,-3.9324 -24.43028,1.58049 -4.32884,4.32884 -5.13683,4.32884 -6.79796,0 -2.78527,-7.2583 -8.9167,-6.00843 -19.29311,3.9328 l -9.23276,8.84555 -3.43931,-9.04605 c -4.4183,-11.62103 -10.11631,-8.13908 -10.11631,6.18184 v 11.1013 l 36.65486,0.1989 c 33.86331,0.18374 36.65487,-0.28341 36.65487,-6.13399 z m 21.6597,-6.66406 c 0,-10.24607 -1.11325,-11.791 -9.16372,-12.7173 -8.68867,-0.99975 -9.16372,-0.34049 -9.16372,12.7173 0,13.0578 0.47505,13.71705 9.16372,12.71731 8.05047,-0.9263 9.16372,-2.47124 9.16372,-12.71731 z m 27.74694,3.98192 c 1.4147,-9.97949 -4.86433,-17.31096 -14.82592,-17.31096 -6.75748,0 -7.92263,1.63354 -7.92263,11.10752 0,13.49509 0.65524,14.23855 12.37482,14.04098 7.10013,-0.11972 9.54108,-1.9639 10.37373,-7.83754 z m -129.38089,-7.31418 c 0,-2.05061 -16.66131,-3.33226 -43.31939,-3.33226 -26.65809,0 -43.31939,1.28165 -43.31939,3.33226 0,2.05061 16.6613,3.33226 43.31939,3.33226 26.65808,0 43.31939,-1.28165 43.31939,-3.33226 z m 226.59372,0 c 0,-2.05061 -16.6613,-3.33226 -43.31939,-3.33226 -26.65808,0 -43.31939,1.28165 -43.31939,3.33226 0,2.05061 16.66131,3.33226 43.31939,3.33226 26.65809,0 43.31939,-1.28165 43.31939,-3.33226 z M 301.21308,744.48772 c 1.11245,-2.899 2.03188,-7.77244 2.04317,-10.82985 0.0113,-3.05738 2.25261,-9.83867 4.98071,-15.06945 6.4484,-12.36402 4.09934,-15.48142 -11.66576,-15.48142 -15.7651,0 -18.11416,3.1174 -11.66576,15.48142 2.7281,5.23078 4.96942,13.38429 4.98071,18.11887 0.031,12.98232 7.39082,18.03776 11.32693,7.78043 z m 40.24031,2.10585 c 1.07587,-1.74077 -1.20932,-4.85913 -5.07819,-6.9297 -6.84646,-3.66412 -6.87119,-3.94856 -0.92639,-10.65081 4.4303,-4.99482 4.96385,-7.28635 1.94258,-8.34314 -5.95644,-2.0835 -5.15155,-7.56613 1.11076,-7.56613 10.76147,0 2.09468,-8.36824 -9.69899,-9.36489 l -12.2384,-1.0342 v 23.52696 23.52699 h 11.46626 c 6.30644,0 12.3465,-1.42427 13.42237,-3.16508 z m 15.0985,-5.36224 c 0,-6.72313 2.96896,-5.9887 9.77669,2.41849 9.83078,12.14049 16.89017,6.0111 16.83037,-14.61323 -0.059,-20.33825 -5.28313,-32.45082 -8.66836,-20.09813 -2.54621,9.29118 -3.73108,9.3209 -11.05408,0.27738 -10.19109,-12.58549 -16.8814,-6.02373 -16.8814,16.55703 0,10.74851 0.95891,20.50167 2.13091,21.67369 3.10981,3.1098 7.86587,-0.64819 7.86587,-6.21523 z m 43.31939,3.52893 c 0,-6.55459 3.28204,-6.34086 8.31449,0.54143 2.39949,3.28151 6.28485,4.68252 9.53107,3.43682 8.63553,-3.31373 7.20665,-45.63151 -1.54077,-45.63151 -1.63666,0 -2.97575,2.24928 -2.97575,4.99839 0,6.55459 -3.28203,6.34086 -8.31449,-0.54142 -2.39949,-3.28151 -6.28485,-4.68253 -9.53107,-3.43683 -4.22349,1.62068 -5.48026,6.58465 -5.48026,21.64573 0,10.74851 0.99968,20.54246 2.22151,21.76426 3.83421,3.83424 7.77527,2.42669 7.77527,-2.77687 z m 55.25349,1.22734 c 1.28184,-2.07407 -0.23869,-5.20889 -3.37896,-6.96629 -5.38608,-3.0142 -5.38689,-3.55182 -0.0143,-9.48851 5.37326,-5.93739 5.37122,-6.41767 -0.036,-8.4926 -4.54589,-1.74444 -4.81202,-2.78214 -1.28665,-5.01685 2.4446,-1.54964 7.74027,-2.84049 11.76817,-2.86855 6.49301,-0.0452 7.43765,1.93271 8.33065,17.44335 1.22284,21.23973 6.57497,22.83852 9.9656,2.97691 1.36308,-7.98459 4.15782,-16.54114 6.21055,-19.01454 7.04384,-8.4873 -0.38743,-11.45352 -28.69465,-11.45352 h -28.12755 v 23.32583 23.32582 h 11.46625 c 6.30644,0 12.51504,-1.69695 13.79689,-3.77105 z m 76.03475,-3.79035 c 2.81169,-4.51864 2.34278,-8.21479 -2.00815,-15.82823 -4.74668,-8.30596 -4.88313,-9.93297 -0.83307,-9.93297 8.21562,0 5.34181,-9.74473 -3.53053,-11.97155 -16.53784,-4.15073 -25.54011,16.50815 -11.48377,26.35358 l 6.80038,4.76317 -6.80038,1.77836 c -3.7402,0.97809 -6.80038,4.263 -6.80038,7.29982 0,7.55007 19.64665,5.58813 24.6559,-2.46218 z m -27.98816,-32.42573 c 0,-3.44915 -1.51011,-7.20451 -3.35578,-8.34521 -4.28263,-2.64678 -7.98034,6.71311 -5.35491,13.5548 2.56224,6.67709 8.71069,2.99991 8.71069,-5.20959 z M 489.17587,532.49526 c 2.48853,-2.48854 3.99871,-14.79337 3.99871,-32.58115 0,-33.75527 -4.59594,-43.3944 -20.69046,-43.3944 h -10.31578 l 1.91294,-56.54411 c 1.05212,-31.09925 2.96765,-58.25066 4.25674,-60.33645 4.03097,-6.52224 8.06903,3.95437 8.12423,21.07807 l 0.051,15.82824 39.15406,-0.051 c 21.53473,-0.0281 40.81826,-1.1527 42.85231,-2.4992 2.63108,-1.74171 2.92785,-15.9102 1.02853,-49.09981 -1.46833,-25.65841 -2.75768,-48.52605 -2.86518,-50.81698 -0.15351,-3.27106 -34.17769,-4.16533 -158.47785,-4.16533 H 239.92277 v 41.87233 c 0,23.02978 1.48772,44.65217 3.30605,48.04975 2.51615,4.70146 8.68648,6.6719 25.82502,8.24701 12.38543,1.13828 27.3924,2.82636 33.34882,3.75129 10.46587,1.62518 10.82984,1.29194 10.82984,-9.91528 0,-17.09509 5.35412,-28.69214 13.24657,-28.69214 6.53775,0 6.747,1.96352 6.747,63.31295 V 459.852 h -9.80783 c -15.61227,0 -20.18252,9.96074 -20.18252,43.98731 v 29.17538 l 62.47989,0.98471 c 34.36394,0.54159 75.30076,1.32444 90.97072,1.73964 18.64839,0.49414 29.87222,-0.62643 32.48954,-3.24375 z"
       id="path6"
       transform="scale(0.26458333)" /><path
       style="fill:#00ffff;stroke-width:3.33226"
       d="m 354.78826,1006.4104 -110.0621,-1.7338 -28.22672,-23.90821 c -15.52469,-13.14953 -31.83503,-26.77385 -36.24519,-30.27622 l -8.01848,-6.36798 -2.51637,-166.3272 c -1.384,-91.47992 -3.61917,-269.66662 -4.96704,-395.97041 l -2.45068,-229.64325 147.94208,2.21236 c 81.36815,1.21679 185.05514,2.2142 230.41554,2.21646 l 82.47345,0.004 -0.0846,222.4284 c -0.0905,237.89016 -4.90016,559.06267 -8.51316,568.47798 -1.20671,3.14465 -17.14581,18.41537 -35.42023,33.93494 l -33.2262,28.21743 -40.5191,-0.7654 c -22.2855,-0.421 -90.04703,-1.5457 -150.58119,-2.4992 z m 45.08302,-203.33604 c 0,-3.48308 -2.62415,-7.86134 -5.83145,-9.7294 -5.50327,-3.20537 -5.49221,-3.40221 0.19666,-3.49785 3.31546,-0.0557 5.10136,-1.60085 3.96866,-3.43359 -3.08493,-4.99153 -17.17005,-4.01361 -22.76415,1.58049 -4.32884,4.32884 -5.13683,4.32884 -6.79796,0 -2.78527,-7.2583 -8.9167,-6.00843 -19.29311,3.9328 l -9.23276,8.84555 -3.43931,-9.04605 c -4.4183,-11.62103 -10.11631,-8.13908 -10.11631,6.18184 v 11.1013 l 36.65486,0.1989 c 33.86331,0.18374 36.65487,-0.28341 36.65487,-6.13399 z m 20.95908,4.6e-4 c 3.01104,-11.51422 -1.09999,-20.44801 -8.89747,-19.33534 -7.2228,1.03067 -11.02113,11.88891 -7.43132,21.24383 2.73229,7.12021 14.32196,5.76564 16.32879,-1.90849 z m 27.3587,-4.6352 c 0,-5.2985 -2.42034,-11.16035 -5.37852,-13.02631 -8.46263,-5.33808 -16.28117,-0.37405 -16.28117,10.33704 0,11.82276 0.84391,12.67378 12.37482,12.47941 7.98114,-0.13455 9.28487,-1.50924 9.28487,-9.79014 z m -131.6243,-5.36158 c 0,-2.03638 -15.55055,-3.33226 -39.98712,-3.33226 -24.43658,0 -39.98713,1.29588 -39.98713,3.33226 0,2.03638 15.55055,3.33226 39.98713,3.33226 24.43657,0 39.98712,-1.29588 39.98712,-3.33226 z m 226.59373,0 c 0,-2.03638 -15.55056,-3.33226 -39.98713,-3.33226 -24.43657,0 -39.98713,1.29588 -39.98713,3.33226 0,2.03638 15.55056,3.33226 39.98713,3.33226 24.43657,0 39.98713,-1.29588 39.98713,-3.33226 z M 301.21308,744.48772 c 1.11245,-2.899 2.03188,-7.77244 2.04317,-10.82985 0.0113,-3.05738 2.25261,-9.83867 4.98071,-15.06945 6.4484,-12.36402 4.09934,-15.48142 -11.66576,-15.48142 -15.7651,0 -18.11416,3.1174 -11.66576,15.48142 2.7281,5.23078 4.96942,13.38429 4.98071,18.11887 0.031,12.98232 7.39082,18.03776 11.32693,7.78043 z m 40.24031,2.10585 c 1.07587,-1.74077 -1.20932,-4.85913 -5.07819,-6.9297 -6.84646,-3.66412 -6.87119,-3.94856 -0.92639,-10.65081 4.4303,-4.99482 4.96385,-7.28635 1.94258,-8.34314 -5.95644,-2.0835 -5.15155,-7.56613 1.11076,-7.56613 10.76147,0 2.09468,-8.36824 -9.69899,-9.36489 l -12.2384,-1.0342 v 23.52696 23.52699 h 11.46626 c 6.30644,0 12.3465,-1.42427 13.42237,-3.16508 z m 15.0985,-5.36224 c 0,-6.72313 2.96896,-5.9887 9.77669,2.41849 9.83078,12.14049 16.89017,6.0111 16.83037,-14.61323 -0.059,-20.33825 -5.28313,-32.45082 -8.66836,-20.09813 -2.54621,9.29118 -3.73108,9.3209 -11.05408,0.27738 -10.19109,-12.58549 -16.8814,-6.02373 -16.8814,16.55703 0,10.74851 0.95891,20.50167 2.13091,21.67369 3.10981,3.1098 7.86587,-0.64819 7.86587,-6.21523 z m 43.31939,3.52893 c 0,-6.36512 2.48282,-6.32386 8.95545,0.14875 2.83094,2.83096 6.8475,4.58879 8.9257,3.90635 4.29463,-1.41028 6.86992,-26.24705 3.9343,-37.94349 -2.15568,-8.58893 -8.48641,-10.65267 -8.48641,-2.76648 0,6.55459 -3.28203,6.34086 -8.31449,-0.54142 -2.39949,-3.28151 -6.28485,-4.68253 -9.53107,-3.43683 -4.22349,1.62068 -5.48026,6.58465 -5.48026,21.64573 0,10.74851 0.99968,20.54246 2.22151,21.76426 3.83421,3.83424 7.77527,2.42669 7.77527,-2.77687 z m 54.74895,2.04371 c 1.00436,-1.62508 -0.44449,-4.83914 -3.21967,-7.14233 -4.48889,-3.72544 -4.43478,-4.86274 0.49028,-10.30485 5.16522,-5.70753 5.15214,-6.26459 -0.19533,-8.31659 -4.54589,-1.74444 -4.81202,-2.78214 -1.28665,-5.01685 2.4446,-1.54964 7.73648,-2.84049 11.75973,-2.86855 6.3713,-0.0444 7.44604,1.99099 8.33065,15.77722 1.19175,18.57266 6.58817,19.64825 10.24616,2.04225 1.41129,-6.79262 4.16454,-14.27634 6.11833,-16.63048 6.85857,-8.26408 -0.78022,-11.23679 -28.87455,-11.23679 h -28.12755 v 23.32583 23.32582 h 11.46625 c 6.30644,0 12.288,-1.3296 13.29235,-2.95468 z m 76.53926,-4.60672 c 2.81176,-4.51868 2.34284,-8.21475 -2.00812,-15.82823 -4.96854,-8.69417 -5.03778,-9.93297 -0.55539,-9.93297 6.30127,0 4.48999,-6.60111 -3.13019,-11.4078 -14.42359,-9.09817 -25.82609,16.21898 -11.74646,26.08077 5.90933,4.13904 6.36525,5.32059 2.05304,5.32059 -6.62823,0 -10.51295,5.28773 -7.48459,10.18775 3.26712,5.2863 18.68605,2.30649 22.87171,-4.42011 z m -27.98813,-32.42573 c 0,-3.44915 -1.51011,-7.20451 -3.35578,-8.34521 -4.28263,-2.64678 -7.98034,6.71311 -5.35491,13.5548 2.56224,6.67709 8.71069,2.99991 8.71069,-5.20959 z M 489.72508,530.04851 c 1.89723,-3.54499 3.4495,-18.20651 3.4495,-32.58114 0,-31.15292 -4.94919,-40.94766 -20.69046,-40.94766 h -10.31578 l 1.91294,-56.54411 c 1.05212,-31.09925 2.96765,-58.25066 4.25674,-60.33645 4.03097,-6.52224 8.06903,3.95437 8.12423,21.07807 l 0.051,15.82824 h 36.38232 c 20.01029,0 38.75426,-0.91019 41.65326,-2.02265 4.28052,-1.64259 5.27093,-7.81203 5.27093,-32.83379 0,-16.94613 -0.96339,-40.02822 -2.14084,-51.29353 l -2.14081,-20.48238 H 397.47226 239.4064 l 1.09125,45.11355 c 1.24061,51.28828 0.61835,50.16288 29.38677,53.14845 10.09587,1.04775 23.97932,2.62766 30.85211,3.51092 12.33343,1.58503 12.49597,1.45653 12.49597,-9.87944 0,-16.99073 5.37166,-28.58052 13.24657,-28.58052 6.53696,0 6.747,1.96438 6.747,63.10183 v 63.10182 l -10.75386,1.04419 c -14.79866,1.43694 -19.12733,11.61709 -19.18736,45.1247 l -0.0491,27.41918 64.14602,0.98135 c 35.28031,0.53973 76.46428,1.32187 91.51993,1.73807 24.09765,0.66619 27.78676,-0.0147 30.82341,-5.6887 z"
       id="path7"
       transform="scale(0.26458333)" /><path
       style="fill:#00ffff;stroke-width:3.33226"
       d="m 348.22124,1006.4142 -103.30008,-1.7376 -35.40702,-29.36162 -35.40703,-29.36162 -2.01873,-32.2852 c -2.91423,-46.60653 -10.44624,-756.52403 -8.0519,-758.91837 1.10516,-1.10516 104.85393,-0.91279 230.55282,0.42748 l 228.54345,2.43686 -0.0986,226.92785 c -0.1053,242.26159 -4.79439,553.32629 -8.48603,562.94656 -1.23007,3.2055 -17.10876,18.50881 -35.28594,34.00732 l -33.0495,28.17914 -47.34566,-0.7616 c -26.04011,-0.4188 -93.83069,-1.5435 -150.64574,-2.4992 z M 398.9295,804.05491 c 1.19664,-3.11836 -0.50139,-7.12318 -4.15208,-9.79262 -5.70317,-4.17025 -5.7296,-4.51651 -0.34476,-4.51651 3.20757,0 4.90519,-1.49952 3.77249,-3.33226 -3.1691,-5.12772 -15.45067,-3.95296 -22.1609,2.11972 -5.57775,5.04781 -6.17946,5.04781 -8.11649,0 -2.95699,-7.70582 -7.94328,-6.79498 -18.57783,3.39357 l -9.23276,8.84555 -3.43931,-9.04605 c -4.42031,-11.62629 -10.11631,-8.13681 -10.11631,6.19747 v 11.11696 l 35.17166,0.14512 c 29.10179,0.12009 35.52107,-0.76539 37.19629,-5.13095 z m 21.90086,-0.98009 c 3.01104,-11.51422 -1.09999,-20.44801 -8.89747,-19.33534 -7.2228,1.03067 -11.02113,11.88891 -7.43132,21.24383 2.73229,7.12021 14.32196,5.76564 16.32879,-1.90849 z m 28.35723,-0.65842 c 1.84142,-9.56519 -5.6998,-19.84608 -13.71997,-18.70428 -7.21026,1.02647 -11.30808,11.7129 -7.89853,20.59804 2.43663,6.34979 20.33332,4.78203 21.6185,-1.89376 z M 313.2325,793.07804 c 0,-2.01955 -14.43979,-3.33226 -36.65486,-3.33226 -22.21508,0 -36.65487,1.31271 -36.65487,3.33226 0,2.01955 14.43979,3.33226 36.65487,3.33226 22.21507,0 36.65486,-1.31271 36.65486,-3.33226 z m 226.59373,0 c 0,-2.01955 -14.43979,-3.33226 -36.65487,-3.33226 -22.21507,0 -36.65486,1.31271 -36.65486,3.33226 0,2.01955 14.43979,3.33226 36.65486,3.33226 22.21508,0 36.65487,-1.31271 36.65487,-3.33226 z M 301.21308,744.48772 c 1.11245,-2.899 2.03188,-7.77244 2.04317,-10.82985 0.0113,-3.05738 2.30446,-9.9386 5.09593,-15.29155 6.39045,-12.25435 2.83312,-16.02051 -13.84105,-14.65358 -9.55724,0.78348 -12.59085,2.36567 -11.61681,6.05878 0.72505,2.74912 2.80339,10.99646 4.61852,18.32744 1.81514,7.33097 3.799,15.20344 4.40859,17.49437 1.55072,5.82782 6.8741,5.19439 9.29165,-1.10561 z m 40.24031,2.10585 c 1.07587,-1.74077 -1.20932,-4.85913 -5.07819,-6.9297 -6.84646,-3.66412 -6.87119,-3.94856 -0.92639,-10.65081 4.4303,-4.99482 4.96385,-7.28635 1.94258,-8.34314 -5.82272,-2.03671 -5.2139,-7.56613 0.83307,-7.56613 2.74911,0 4.99839,-1.33911 4.99839,-2.97575 0,-3.85109 -8.39776,-7.02104 -18.59997,-7.02104 -7.75521,0 -8.05812,0.87682 -8.05812,23.32583 v 23.32582 h 11.46626 c 6.30644,0 12.3465,-1.42427 13.42237,-3.16508 z m 15.0985,-5.36224 c 0,-6.47665 2.07934,-6.05465 10.20505,2.07107 10.12368,10.12367 14.66204,6.40194 15.79362,-12.95177 1.15217,-19.70595 -4.34954,-34.41922 -8.00662,-21.41217 -2.57869,9.17155 -2.96797,9.19261 -11.53579,0.6248 -3.78004,-3.78005 -8.65347,-6.28631 -10.82985,-5.56954 -4.15025,1.36689 -7.34844,33.13033 -4.16985,41.4136 2.1955,5.72139 8.54344,2.61856 8.54344,-4.17599 z m 43.31939,3.52893 c 0,-6.51237 3.01756,-6.3161 10.7709,0.70058 5.43248,4.91631 6.71994,5.03071 9.37507,0.83306 3.47949,-5.50093 4.22482,-29.9219 1.15721,-37.91596 -2.56586,-6.68655 -7.97414,-6.87139 -7.97414,-0.27255 0,6.36512 -2.48281,6.32387 -8.95545,-0.14875 -2.83093,-2.83095 -6.8475,-4.58749 -8.92569,-3.90341 -3.94884,1.29982 -7.10924,33.22901 -4.07239,41.14289 2.35455,6.13586 8.62449,5.81899 8.62449,-0.43586 z m 54.74895,2.04371 c 1.00436,-1.62508 -0.44449,-4.83914 -3.21967,-7.14233 -4.48889,-3.72544 -4.43478,-4.86274 0.49028,-10.30485 5.16522,-5.70753 5.15214,-6.26459 -0.19533,-8.31659 -4.54589,-1.74444 -4.81202,-2.78214 -1.28665,-5.01685 2.4446,-1.54964 7.81864,-2.84049 11.94231,-2.86855 6.32294,-0.043 7.49759,1.73351 7.49759,11.33935 0,13.91649 3.01099,22.52412 7.01369,20.05031 1.6407,-1.014 2.99232,-5.12908 3.00362,-9.14459 0.0113,-4.0155 2.30573,-11.68307 5.09876,-17.03901 6.84372,-13.12361 2.96216,-15.13913 -29.27818,-15.20284 l -25.82502,-0.051 v 23.32583 23.32582 h 11.46625 c 6.30644,0 12.288,-1.3296 13.29235,-2.95468 z m 72.09602,-0.49481 c 7.78899,-4.16856 8.25434,-12.47865 1.25813,-22.46713 -4.69496,-6.70301 -4.69496,-7.40598 0,-7.40598 7.98479,0 6.14795,-6.36972 -3.04465,-10.55814 -16.10382,-7.3374 -24.9731,10.67566 -11.76159,23.88718 4.94088,4.94087 5.42266,6.66452 1.8628,6.66452 -5.88673,0 -9.65042,5.4837 -6.86119,9.99678 2.65572,4.29705 10.38969,4.24817 18.5465,-0.11723 z m -23.54489,-36.53764 c 0,-3.44915 -1.51011,-7.20451 -3.35578,-8.34521 -4.28263,-2.64678 -7.98034,6.71311 -5.35491,13.5548 2.56224,6.67709 8.71069,2.99991 8.71069,-5.20959 z m -16.6613,-176.5389 c 3.64389,-2.30319 5.25707,-10.64201 5.95302,-30.7724 1.17532,-33.99605 -2.93697,-43.80964 -19.00533,-45.3544 l -11.2342,-1.08001 1.76594,-56.10396 c 0.97126,-30.85719 2.87437,-57.89746 4.22913,-60.08951 4.16423,-6.73786 8.18744,3.45477 8.24363,20.88488 l 0.051,15.82824 34.15567,-0.0455 c 51.64554,-0.0688 49.15084,1.69971 49.15084,-34.84306 0,-16.92846 -0.96339,-39.99609 -2.14084,-51.2614 l -2.14081,-20.48238 H 397.40351 239.26888 l 1.16001,45.10948 c 0.90372,35.14316 2.24078,45.7769 6.05179,48.13035 2.69048,1.66148 14.68662,3.93368 26.65809,5.04934 42.25012,3.93741 38.22183,5.10543 40.18018,-11.65039 2.14024,-18.31209 5.02892,-23.32582 13.43926,-23.32582 6.17536,0 6.46786,2.8632 6.46786,63.31295 v 63.31295 h -7.69376 c -16.89226,0 -20.53869,6.91547 -21.7828,41.31114 l -1.15234,31.85858 67.79755,0.97605 c 37.28866,0.53683 77.54442,1.29512 89.45725,1.68512 11.91284,0.38998 23.90897,-0.71263 26.65809,-2.45024 z"
       id="path8"
       transform="scale(0.26458333)" /><path
       style="fill:#00ffff;stroke-width:3.33226"
       d="m 343.16447,1006.4174 -98.36006,-1.7408 -35.46513,-29.48538 -35.46512,-29.48541 -1.91828,-33.82754 c -2.11913,-37.36964 -8.77765,-558.19136 -8.71481,-681.66302 l 0.0397,-78.01885 157.44932,2.20608 c 86.59712,1.21334 190.06382,2.20781 229.92599,2.20992 l 72.47667,0.004 -0.108,234.09131 c -0.11303,245.04323 -4.65794,546.82945 -8.38137,556.53259 -1.19702,3.11936 -16.92572,18.4433 -34.95265,34.05321 l -32.77632,28.38169 -52.69493,-0.7584 c -28.98222,-0.417 -96.95697,-1.5417 -151.05501,-2.4992 z M 398.9295,804.05491 c 1.19664,-3.11836 -0.50139,-7.12318 -4.15208,-9.79262 -8.51825,-6.22869 -11.56744,-5.66247 -11.56744,2.14801 0,3.66549 1.49952,6.66452 3.33226,6.66452 1.83274,0 3.33226,-1.49951 3.33226,-3.33226 0,-1.83274 1.49952,-3.33226 3.33226,-3.33226 1.83274,0 3.33226,2.17254 3.33226,4.82788 0,3.91094 -6.35705,4.783 -33.47098,4.59139 -18.40905,-0.13006 -34.24633,0.53886 -35.19396,1.48649 -0.94764,0.94763 14.19662,1.78866 33.65391,1.86896 29.2895,0.12086 35.72527,-0.76188 37.40151,-5.13011 z m 20.93535,-0.98009 c 4.56324,-8.52649 -1.42084,-20.84545 -9.38856,-19.32747 -5.8191,1.1086 -9.15222,12.95552 -5.97472,21.23596 2.64619,6.89585 11.22144,5.83062 15.36328,-1.90849 z m 29.32372,-4.00051 c 1.31171,-6.80764 -8.66308,-16.60702 -15.56608,-15.29238 -5.59727,1.06596 -8.9453,12.99206 -5.88566,20.96536 2.33443,6.08344 20.0913,1.38758 21.45174,-5.67298 z m -115.43142,-9.07638 c 2.40686,3.45272 2.98967,3.54293 2.1385,0.331 -1.91409,-7.22285 -7.64233,-4.72881 -7.98952,3.47858 -0.29188,6.89971 -0.1894,6.85569 1.11045,-0.47732 1.1433,-6.44975 2.09905,-7.12157 4.74057,-3.33226 z m 17.48993,4.74624 c 7.04528,-10.75247 11.27253,-10.52854 15.72724,0.83307 3.59223,9.16188 3.59353,9.16221 6.50366,1.58775 1.60089,-4.16679 6.3199,-8.94518 10.48668,-10.61865 4.16678,-1.67346 5.44477,-3.13769 2.83996,-3.25385 -2.6048,-0.11619 -7.44697,2.24215 -10.76037,5.24075 -5.57775,5.04781 -6.17946,5.04781 -8.11649,0 -2.95635,-7.70416 -8.97275,-6.77339 -17.94391,2.77597 -4.25136,4.52538 -9.0113,7.43591 -10.57764,6.46785 -1.56633,-0.96805 -2.84788,-0.17208 -2.84788,1.76883 0,6.58012 9.20211,3.57195 14.68875,-4.80172 z m -38.01458,-1.66613 c 0,-2.01955 -14.43979,-3.33226 -36.65486,-3.33226 -22.21508,0 -36.65487,1.31271 -36.65487,3.33226 0,2.01955 14.43979,3.33226 36.65487,3.33226 22.21507,0 36.65486,-1.31271 36.65486,-3.33226 z m 226.59373,0 c 0,-2.01955 -14.43979,-3.33226 -36.65487,-3.33226 -22.21507,0 -36.65486,1.31271 -36.65486,3.33226 0,2.01955 14.43979,3.33226 36.65486,3.33226 22.21508,0 36.65487,-1.31271 36.65487,-3.33226 z m -139.95495,-4.80172 c 0,-0.80821 -1.49952,-2.39623 -3.33226,-3.52893 -1.83274,-1.1327 -3.33226,-0.47145 -3.33226,1.46946 0,1.94091 1.49952,3.52893 3.33226,3.52893 1.83274,0 3.33226,-0.66125 3.33226,-1.46946 z m -98.15371,-47.68138 c 1.06759,-5.04005 3.9381,-14.69407 6.37891,-21.45343 2.44081,-6.75933 3.59525,-13.13227 2.56542,-14.16211 -3.26252,-3.26252 -27.41974,-2.01848 -27.41974,1.41205 0,2.7917 4.97057,25.23834 8.68084,39.20188 1.9664,7.40051 7.79866,4.42417 9.79457,-4.99839 z m 39.73582,5.99863 c 1.07587,-1.74077 -1.20932,-4.85913 -5.07819,-6.9297 -6.57361,-3.5181 -6.67462,-4.16209 -1.54239,-9.83317 3.61567,-3.99525 4.27933,-6.8179 1.94259,-8.26211 -5.21749,-3.22459 -4.32044,-8.4648 1.44906,-8.4648 2.74911,0 4.99839,-1.33911 4.99839,-2.97575 0,-3.85109 -8.39776,-7.02104 -18.59997,-7.02104 -7.75521,0 -8.05812,0.87682 -8.05812,23.32583 v 23.32582 h 11.46626 c 6.30644,0 12.3465,-1.42427 13.42237,-3.16508 z m 15.0985,-5.36224 c 0,-6.19317 6.32271,-6.23756 8.69288,-0.061 2.60132,6.77892 11.94929,9.57792 15.14857,4.53584 3.52171,-5.55021 3.17459,-29.03972 -0.55565,-37.6008 -2.82137,-6.47518 -2.96775,-6.45152 -5.15282,0.83307 -2.54706,8.4914 -7.45337,9.82207 -10.16456,2.75685 -2.60131,-6.77892 -11.94928,-9.57792 -15.14857,-4.53584 -3.21298,5.06367 -3.76019,37.21262 -0.68572,40.28709 3.10981,3.1098 7.86587,-0.64819 7.86587,-6.21523 z m 53.46661,3.66509 c 5.91909,5.35667 7.36649,5.55898 9.99875,1.39748 3.47949,-5.50093 4.22482,-29.9219 1.15721,-37.91596 -2.56586,-6.68655 -7.97414,-6.87139 -7.97414,-0.27255 0,6.51237 -3.01756,6.3161 -10.77089,-0.70057 -8.60868,-7.79073 -12.4366,-1.37046 -12.5039,20.97182 -0.0579,19.21418 2.84009,24.38615 8.96823,16.00541 3.96112,-5.41716 4.60331,-5.38747 11.12474,0.51437 z m 44.60173,1.90755 c 1.00436,-1.62508 -0.44449,-4.83914 -3.21967,-7.14233 -4.48889,-3.72544 -4.43478,-4.86274 0.49028,-10.30485 5.16522,-5.70753 5.15214,-6.26459 -0.19533,-8.31659 -4.54589,-1.74444 -4.81202,-2.78214 -1.28665,-5.01685 2.4446,-1.54964 7.81864,-2.84049 11.94231,-2.86855 6.32294,-0.043 7.49759,1.73351 7.49759,11.33935 0,13.91649 3.01099,22.52412 7.01369,20.05031 1.6407,-1.014 2.99232,-5.12908 3.00362,-9.14459 0.0113,-4.0155 2.30573,-11.68307 5.09876,-17.03901 6.84372,-13.12361 2.96216,-15.13913 -29.27818,-15.20284 l -25.82502,-0.051 v 23.32583 23.32582 h 11.46625 c 6.30644,0 12.288,-1.3296 13.29235,-2.95468 z m 72.09602,-0.49481 c 7.78899,-4.16856 8.25434,-12.47865 1.25813,-22.46713 -4.69496,-6.70301 -4.69496,-7.40598 0,-7.40598 7.30161,0 6.45145,-5.75352 -1.47719,-9.99679 -8.66528,-4.6375 -19.99357,1.09305 -19.99357,10.11401 0,3.60101 2.99904,9.54633 6.66452,13.21182 4.94088,4.94087 5.42266,6.66452 1.8628,6.66452 -5.88673,0 -9.65042,5.4837 -6.86119,9.99678 2.65572,4.29705 10.38969,4.24817 18.5465,-0.11723 z m -23.54489,-36.53764 c 0,-3.44915 -1.51011,-7.20451 -3.35578,-8.34521 -4.28263,-2.64678 -7.98034,6.71311 -5.35491,13.5548 2.56224,6.67709 8.71069,2.99991 8.71069,-5.20959 z m -16.6613,-176.5393 c 3.87748,-2.45111 4.99839,-10.34624 4.99839,-35.20633 0,-34.95731 -3.32779,-41.50618 -21.09126,-41.50618 h -8.15456 l 1.62094,-56.14791 c 0.89151,-30.88136 2.78583,-58.03276 4.20959,-60.33645 4.30412,-6.96422 8.3119,2.93988 8.36909,20.68187 l 0.051,15.82824 h 35.2078 c 47.65046,0 48.10441,-0.32361 48.07502,-34.27292 -0.013,-15.05565 -0.97962,-37.49565 -2.14797,-49.86667 l -2.12432,-22.49276 H 397.38865 239.25349 l 1.16771,43.20326 c 0.91685,33.92219 2.30612,44.34106 6.46701,48.49969 3.70989,3.70788 14.45392,5.88953 35.8218,7.2739 l 30.52249,1.97746 V 358.4922 c 0,-15.72347 5.07847,-25.26613 13.44629,-25.26613 6.27847,0 6.54728,2.59942 6.54728,63.31295 v 63.31295 h -7.69376 c -16.63565,0 -20.1796,6.73098 -21.68668,41.18918 l -1.3987,31.98007 67.87267,0.97629 c 37.32997,0.53696 77.61954,1.29535 89.53237,1.68535 11.91284,0.38998 23.90897,-0.7128 26.65809,-2.45064 z"
       id="path9"
       transform="scale(0.26458333)" /><rect
       style="fill:#00ffff;stroke-width:0.264583"
       id="rect9"
       width="35.266422"
       height="14.98823"
       x="83.757759"
       y="201.90028" /><text
       xml:space="preserve"
       transform="matrix(0.38795317,0,0,0.43596156,-36.884209,-135.34897)"
       id="text9"
       style="font-weight:bold;font-size:40px;font-family:Calibri;-inkscape-font-specification:'Calibri Bold';white-space:pre;shape-inside:url(#rect10);fill:#000000"><tspan
         x="326.5625"
         y="804.75195"
         id="tspan3">Zero</tspan></text></g></svg>
