<?xml version="1.0" encoding="UTF-8" standalone="no"?>
<!-- Created with Inkscape (http://www.inkscape.org/) -->

<svg
   width="210mm"
   height="297mm"
   viewBox="0 0 210 297"
   version="1.1"
   id="svg1"
   xml:space="preserve"
   inkscape:version="1.3.2 (091e20e, 2023-11-25, custom)"
   sodipodi:docname="Tennents Keg.svg"
   xmlns:inkscape="http://www.inkscape.org/namespaces/inkscape"
   xmlns:sodipodi="http://sodipodi.sourceforge.net/DTD/sodipodi-0.dtd"
   xmlns:xlink="http://www.w3.org/1999/xlink"
   xmlns="http://www.w3.org/2000/svg"
   xmlns:svg="http://www.w3.org/2000/svg"><sodipodi:namedview
     id="namedview1"
     pagecolor="#505050"
     bordercolor="#eeeeee"
     borderopacity="1"
     inkscape:showpageshadow="0"
     inkscape:pageopacity="0"
     inkscape:pagecheckerboard="0"
     inkscape:deskcolor="#505050"
     inkscape:document-units="mm"
     inkscape:zoom="0.42440064"
     inkscape:cx="730.44188"
     inkscape:cy="367.5772"
     inkscape:window-width="1440"
     inkscape:window-height="830"
     inkscape:window-x="-6"
     inkscape:window-y="-6"
     inkscape:window-maximized="1"
     inkscape:current-layer="layer1" /><defs
     id="defs1"><linearGradient
       id="linearGradient13"
       inkscape:collect="always"><stop
         style="stop-color:#000000;stop-opacity:0;"
         offset="0"
         id="stop14" /><stop
         style="stop-color:#000000;stop-opacity:0.21785714;"
         offset="0.08622688"
         id="stop16" /><stop
         style="stop-color:#000000;stop-opacity:0;"
         offset="0.08622688"
         id="stop17" /><stop
         style="stop-color:#000000;stop-opacity:0;"
         offset="0.91102433"
         id="stop18" /><stop
         style="stop-color:#000000;stop-opacity:0.33333333;"
         offset="0.91102433"
         id="stop19" /><stop
         style="stop-color:#000000;stop-opacity:0;"
         offset="1"
         id="stop15" /></linearGradient><rect
       x="293.23894"
       y="693.11022"
       width="209.93243"
       height="41.708797"
       id="rect17" /><rect
       x="271.91247"
       y="629.13082"
       width="124.4044"
       height="42.652937"
       id="rect16" /><rect
       x="293.23895"
       y="693.11023"
       width="101.07858"
       height="35.877341"
       id="rect17-3" /><linearGradient
       inkscape:collect="always"
       xlink:href="#linearGradient13"
       id="linearGradient15"
       x1="102.53045"
       y1="113.31456"
       x2="102.5761"
       y2="91.735245"
       gradientUnits="userSpaceOnUse" /><linearGradient
       inkscape:collect="always"
       xlink:href="#linearGradient13"
       id="linearGradient19"
       gradientUnits="userSpaceOnUse"
       x1="102.53045"
       y1="113.31456"
       x2="102.5761"
       y2="91.735245"
       gradientTransform="translate(-0.93152152,86.917257)" /></defs><g
     inkscape:label="Layer 1"
     inkscape:groupmode="layer"
     id="layer1"><path
       style="fill:#000000;stroke-width:0.544028"
       d="m 25.879018,25.187485 2.447034,6.715117 -20.7997283,21.488372 3.6705373,209.511646 17.129191,8.05812 12.235125,8.05818 124.798333,1.343 17.12919,-10.74418 8.56459,-4.02907 3.67055,-0.67152 2.44701,-211.526176 -20.7997,-20.816862 -1.22351,-6.715113 z"
       id="path13-6" /><path
       style="fill:#f5d300;fill-opacity:1;stroke-width:0.791325"
       d="m 83.634431,267.06714 c -17.006167,-0.22275 -32.108358,-0.44389 -33.560394,-0.49141 -1.889297,-0.0619 -4.16285,-1.16629 -7.994819,-3.88368 -2.945107,-2.08847 -8.807823,-5.43764 -13.02826,-7.44257 L 21.37746,251.60413 21.3085,236.71895 c -0.03787,-8.18686 -0.741067,-52.43867 -1.56251,-98.33738 L 18.252473,54.929368 27.651189,44.831666 37.049928,34.733964 35.975717,31.682115 c -0.590822,-1.678517 -1.008696,-3.080887 -0.928645,-3.116384 0.07997,-0.03548 29.909995,0.06935 66.288748,0.23304 l 66.14322,0.29758 0.69174,3.10853 c 0.5161,2.319244 3.05751,5.62091 10.0091,13.003335 l 9.31731,9.894811 -0.65871,59.366813 c -1.3534,121.97117 -1.79241,139.26076 -3.53633,139.26076 -0.86556,0 -6.7467,3.1441 -13.06926,6.98689 l -11.49556,6.98691 -22.09129,-0.1162 c -12.15023,-0.0637 -36.00546,-0.29839 -53.011598,-0.52114 z"
       id="path14" /><path
       style="fill:#ffffff;fill-opacity:1;stroke-width:0.676986"
       d="M 57.696828,106.35147 V 85.926759 l 92.913852,-0.444009 2.44506,23.08879 h -22.00588 l -0.81503,-9.768324 -7.33533,0.444009 v 30.193005 h 8.96538 v 15.54055 l -55.422276,-0.888 v -14.20851 l 8.965389,0.44403 V 98.359218 h -9.780425 v 9.324312 z"
       id="path15-1" /><path
       style="fill:#d40000;fill-opacity:1;stroke-width:0.619645"
       d="M 62.760322,106.68634 V 87.594511 l 83.275478,-0.415033 2.19146,21.582072 h -19.72318 l -0.73046,-9.130873 -6.57439,0.415033 v 28.22269 h 8.03536 v 14.5264 l -49.673076,-0.83005 v -13.28131 l 8.035372,0.41505 V 99.215645 h -8.76586 v 8.715825 z"
       id="path15" /><path
       style="fill:#f9f9f9;fill-opacity:1;stroke-width:0.474947"
       d="m 16.193799,53.317386 169.305851,2.592248 -18.68962,-22.034112 -3.29818,-4.536434 -130.827224,-1.296127 4.39756,5.832561 z"
       id="path16" /><text
       xml:space="preserve"
       transform="matrix(0.85841227,0,0,0.64465849,-172.04021,-248.85339)"
       id="text16"
       style="font-style:normal;font-variant:normal;font-weight:bold;font-stretch:normal;font-size:26.6667px;font-family:Calibri;-inkscape-font-specification:'Calibri Bold';white-space:pre;shape-inside:url(#rect16);fill:#000000;fill-opacity:1"><tspan
         x="271.91211"
         y="652.46422"
         id="tspan1">TENNET'S</tspan></text><text
       xml:space="preserve"
       transform="matrix(0.61860519,0,0,0.36465226,-138.85537,-67.269423)"
       id="text17"
       style="font-style:normal;font-variant:normal;font-weight:bold;font-stretch:normal;font-size:26.6667px;font-family:Calibri;-inkscape-font-specification:'Calibri Bold';white-space:pre;shape-inside:url(#rect17);fill:#000000;fill-opacity:1"><tspan
         x="293.23828"
         y="716.44274"
         id="tspan2">____             ____</tspan></text><text
       xml:space="preserve"
       transform="matrix(0.61860519,0,0,0.36465226,-102.25219,-64.265005)"
       id="text17-8"
       style="font-style:normal;font-variant:normal;font-weight:bold;font-stretch:normal;font-size:26.6667px;font-family:Calibri;-inkscape-font-specification:'Calibri Bold';white-space:pre;shape-inside:url(#rect17-3);fill:#000000;fill-opacity:1"><tspan
         x="293.23828"
         y="716.44274"
         id="tspan3">LAGER</tspan></text><ellipse
       style="fill:#000000;fill-opacity:1;stroke-width:0.317145"
       id="path1-7"
       cx="106.07118"
       cy="221.08965"
       rx="26.461039"
       ry="16.249901" /><rect
       style="fill:#000000;fill-opacity:1;stroke-width:0.267172"
       id="rect1-4"
       width="75.115211"
       height="26.928406"
       x="67.659981"
       y="222.48251" /><ellipse
       style="fill:#d40000;fill-opacity:1;stroke-width:0.285153"
       id="path1"
       cx="106.45727"
       cy="222.36751"
       rx="24.511276"
       ry="14.181732" /><rect
       style="fill:#d40000;fill-opacity:1;stroke-width:0.240219"
       id="rect1"
       width="69.580399"
       height="23.501156"
       x="70.876373"
       y="223.58308" /><ellipse
       style="fill:#000000;fill-opacity:1;stroke-width:0.240219"
       id="path2"
       cx="106.06193"
       cy="236.54922"
       rx="9.8835802"
       ry="8.9142323" /><ellipse
       style="fill:#d40000;fill-opacity:1;stroke-width:0.240219"
       id="path3"
       cx="105.86426"
       cy="237.56219"
       rx="5.9301476"
       ry="6.8882694" /><rect
       style="fill:#000000;fill-opacity:1;stroke-width:0.264583"
       id="rect3"
       width="9.3514233"
       height="21.819988"
       x="2.4937129"
       y="91.020515" /><rect
       style="fill:#000000;fill-opacity:1;stroke-width:0.264583"
       id="rect3-5"
       width="9.3514233"
       height="21.819988"
       x="191.82736"
       y="91.828621" /><rect
       style="fill:#000000;fill-opacity:1;stroke-width:0.264583"
       id="rect3-5-8"
       width="9.3514233"
       height="21.819988"
       x="193.59894"
       y="178.65546" /><rect
       style="fill:#000000;fill-opacity:1;stroke-width:0.264583"
       id="rect3-5-8-6"
       width="9.3514233"
       height="21.819988"
       x="4.7762537"
       y="179.25684" /><rect
       style="fill:url(#linearGradient15);fill-opacity:1;stroke-width:0.264583"
       id="rect10"
       width="170.19591"
       height="21.819988"
       x="17.45599"
       y="91.643944" /><rect
       style="fill:url(#linearGradient19);fill-opacity:1;stroke-width:0.264583"
       id="rect10-4"
       width="170.19591"
       height="21.819988"
       x="16.524467"
       y="178.5612" /></g></svg>
