<?xml version="1.0" encoding="UTF-8" standalone="no"?>
<!-- Created with Inkscape (http://www.inkscape.org/) -->

<svg
   width="210mm"
   height="297mm"
   viewBox="0 0 210 297"
   version="1.1"
   id="svg1"
   xml:space="preserve"
   inkscape:version="1.3.2 (091e20e, 2023-11-25, custom)"
   sodipodi:docname="Tennents Classic.svg"
   xmlns:inkscape="http://www.inkscape.org/namespaces/inkscape"
   xmlns:sodipodi="http://sodipodi.sourceforge.net/DTD/sodipodi-0.dtd"
   xmlns:xlink="http://www.w3.org/1999/xlink"
   xmlns="http://www.w3.org/2000/svg"
   xmlns:svg="http://www.w3.org/2000/svg"><sodipodi:namedview
     id="namedview1"
     pagecolor="#505050"
     bordercolor="#eeeeee"
     borderopacity="1"
     inkscape:showpageshadow="0"
     inkscape:pageopacity="0"
     inkscape:pagecheckerboard="0"
     inkscape:deskcolor="#505050"
     inkscape:document-units="mm"
     inkscape:zoom="0.41799165"
     inkscape:cx="150.72071"
     inkscape:cy="459.33932"
     inkscape:window-width="1440"
     inkscape:window-height="830"
     inkscape:window-x="-6"
     inkscape:window-y="-6"
     inkscape:window-maximized="1"
     inkscape:current-layer="layer1" /><defs
     id="defs1"><rect
       x="222.49248"
       y="906.71668"
       width="349.28927"
       height="55.025023"
       id="rect27" /><rect
       x="193.78378"
       y="746.42639"
       width="409.09908"
       height="98.088084"
       id="rect26" /><rect
       x="303.83382"
       y="562.21219"
       width="205.74574"
       height="59.809807"
       id="rect25" /><rect
       x="275.12511"
       y="112.44244"
       width="236.84684"
       height="69.379376"
       id="rect24" /><rect
       x="293.23894"
       y="693.11022"
       width="209.93243"
       height="41.708797"
       id="rect17" /><rect
       x="271.91247"
       y="629.13082"
       width="124.4044"
       height="42.652937"
       id="rect16" /><rect
       x="293.23895"
       y="693.11023"
       width="101.07858"
       height="35.877341"
       id="rect17-3" /></defs><g
     inkscape:label="Layer 1"
     inkscape:groupmode="layer"
     id="layer1"><path
       id="path13-6"
       style="fill:#000000;stroke-width:0.481447"
       d="m 167.12933,39.869918 c -0.45264,0.01364 -0.90599,0.03604 -1.35444,0.0083 h -4.48034 -4.47156 -4.77697 -5.57847 -7.38973 c -3.16628,3e-6 -6.33237,-1.3e-5 -9.49865,0 -3.38729,1.7e-5 -6.77488,-9.1e-5 -10.16217,0 -3.77065,1.22e-4 -7.54132,3.8e-4 -11.31197,0.001 -3.98365,8e-4 -7.96706,0.0019 -11.950692,0.0062 -3.557595,0.005 -7.115207,0.01157 -10.672734,0.03514 -3.105259,0.02406 -6.211179,0.05025 -9.314677,0.165364 -2.46844,0.102531 -4.928702,0.314882 -7.396448,0.425297 -2.13892,-2e-6 -4.277742,1.4e-5 -6.416662,0 -1.800392,-1.4e-5 -3.600829,1e-4 -5.401221,0 -1.717277,-1.16e-4 -3.434345,-4.03e-4 -5.151624,-0.001 -2.029208,-8e-4 -4.058793,-0.0022 -6.088,-0.0062 -2.621615,-0.0059 -5.243099,-0.01336 -7.864636,-0.03566 -1.184819,-0.01135 -2.369078,-0.05174 -3.553788,-0.06976 l 2.448946,203.301282 h 3.554821 c 6.493757,0.11993 12.986762,0.29609 19.480465,0.42065 4.636186,0.0861 9.272925,0.13532 13.909745,0.17002 2.950024,0.0209 5.900021,0.0297 8.850106,0.0357 2.475752,0.005 4.951699,0.005 7.427454,0.006 2.535407,6.6e-4 5.07084,0.001 7.606254,0.001 2.789011,1e-4 5.577921,-10e-6 8.366931,0 3.38479,2e-5 6.76963,0 10.15442,0 h 12.85193 12.24266 11.45253 9.08834 7.89512 2.19005 L 173.44006,39.9495 c -1.45731,0.213145 -3.10554,0.226919 -4.96042,-0.03514 -0.44574,-0.06298 -0.89767,-0.05809 -1.35031,-0.04444 z" /><path
       id="path14"
       style="fill:#e1d79c;fill-opacity:1;stroke-width:0.700297"
       d="m 84.758651,43.945121 c -3.631634,0.0085 -7.256758,0.33732 -10.877373,0.629936 -4.695907,0.392731 -9.402346,0.618167 -14.111283,0.774113 -3.575808,0.109905 -7.153405,0.153942 -10.730611,0.186552 -2.276752,0.01836 -4.553352,0.02265 -6.830074,0.02739 l 1.036629,84.21863 c 0.602807,48.98389 1.11891,96.21045 1.1467,104.9476 l 0.01033,3.2737 h 6.015654 36.415865 27.468087 26.89035 20.42511 c 0.94099,-0.0121 1.8809,0.0114 2.82102,0.0305 0.46919,-17.66033 0.82586,-55.14701 1.42575,-133.77116 l 0.4377,-57.4151 c -2.3927,-0.165385 -4.67163,-0.304822 -7.70185,-0.487309 -10.67137,-0.58007 -21.35531,-0.888417 -32.03888,-1.132747 -6.7353,-0.177272 -13.47412,-0.144189 -20.20962,-0.29559 -5.98738,-0.281596 -11.969571,-0.648753 -17.959623,-0.874882 -1.212077,-0.08154 -2.423342,-0.114443 -3.633886,-0.111621 z" /><path
       style="fill:#aa0000;fill-opacity:1;stroke-width:0.310272"
       d="m 70.02244,116.46963 -9.255677,-40.004788 13.883518,-2.500296 21.816957,-7.500897 27.105912,0.833432 23.1392,8.334329 3.30559,0.833432 -7.27232,30.003598 -14.54463,-11.66807 -23.80032,-4.167165 -13.883514,5.0006 -10.577917,9.167765 z"
       id="path3" /><path
       style="fill:#aa0000;fill-opacity:1;stroke-width:0.304381"
       d="m 70.390326,145.36615 -8.796175,40.51118 13.194265,2.53194 20.733844,7.59586 25.76023,-0.84399 21.99044,-8.43983 3.14148,-0.84398 -6.91128,-30.38339 -13.82255,11.81577 -22.61874,4.21991 -13.194266,-5.0639 -10.052772,-9.2838 z"
       id="path3-2" /><ellipse
       style="fill:#aa0000;fill-opacity:1;stroke-width:0.407499"
       id="path24-0"
       cx="105.98878"
       cy="128.87857"
       rx="42.726631"
       ry="43.043121" /><ellipse
       style="opacity:1;fill:#e1d79c;fill-opacity:1;stroke-width:0.311233"
       id="path24"
       cx="105.70885"
       cy="127.54691"
       rx="32.282345"
       ry="33.231823" /><path
       style="fill:#aa0000;fill-opacity:1;stroke-width:0.444168"
       d="m 81.362209,122.07148 v -17.1028 l 47.764651,-0.37179 1.25696,19.3336 h -11.3127 l -0.41897,-8.1796 -3.77089,0.3718 v 25.28238 h 4.60887 v 13.013 L 90.998937,153.6745 v -11.89762 l 4.608883,0.3718 V 115.3791 h -5.027872 v 7.80779 z"
       id="path15" /><path
       id="path1"
       style="opacity:0;fill:#000080;fill-opacity:0;stroke-width:2.39239"
       transform="scale(0.26458333)"
       d="m 621.04493,150.72071 c 0.27469,0.7322 0.45262,1.41282 0.86719,2.1875 2.64521,4.94298 2.37046,4.98865 -29.11328,4.93945 -17.48082,-0.0273 -121.10733,-2.12712 -230.28126,-4.66797 -30.14382,-0.70155 -52.91216,-1.18111 -75.18359,-1.64258 -9.14783,0.39548 -18.26766,1.16693 -27.41406,1.57617 -8.08411,0 -16.16785,6e-5 -24.25196,0 -6.80463,-5e-5 -13.60943,3.8e-4 -20.41406,0 -6.4905,-4.4e-4 -12.9802,-0.002 -19.4707,-0.004 -7.66946,-0.003 -15.34033,-0.008 -23.00977,-0.0234 -3.63421,-0.008 -7.26824,-0.0366 -10.90234,-0.0488 -0.9557,5.05079 -1.20147,39.16861 -0.4961,80.22071 0.74608,43.42177 2.42204,181.76185 3.72461,307.42187 1.30257,125.66004 3.03087,268.47732 3.83985,317.36915 l 1.04882,63.40234 c 18.64902,0.40414 37.29748,0.85126 55.94727,1.20899 17.52267,0.32526 35.04719,0.51143 52.57227,0.64258 11.14973,0.079 22.29924,0.11208 33.44922,0.13476 9.35719,0.0189 18.71505,0.0186 28.07226,0.0215 9.58269,0.002 19.16536,0.003 28.74805,0.004 10.54112,3.8e-4 21.08193,-4e-5 31.62305,0 12.79287,8e-5 25.58603,0 38.3789,0 h 48.57422 46.27149 43.28515 34.34961 7.89453 c 2.09767,-68.50332 4.9753,-292.94501 6.66016,-532.44727 1.28378,-182.49108 1.00221,-235.80548 -1.26562,-240.04297 -0.0534,-0.0998 -0.10824,-0.15467 -0.16211,-0.25195 z M 239.23828,270.33985 h 157.89844 c 124.72318,0 157.89868,0.62804 157.89844,2.99023 -1.7e-4,1.64477 1.74551,24.30058 3.88086,50.34571 2.13538,26.04509 3.19263,48.0476 2.34766,48.89257 -0.84497,0.84497 -19.65664,2.00585 -41.80274,2.58204 l -40.26562,1.04882 -1.55469,-7.77343 c -0.85502,-4.27509 -1.55469,-13.55838 -1.55469,-20.63086 0,-12.69294 -0.0933,-12.85938 -7.17773,-12.85938 h -7.17578 v 62.20117 62.20313 h 10.76562 c 5.92117,0 10.76563,1.07677 10.76563,2.39258 0,1.31582 1.61417,2.39258 3.58789,2.39258 3.02487,0 3.58789,5.4492 3.58789,34.68945 v 34.68945 l -54.42578,-0.53711 c -29.93471,-0.29491 -72.46018,-0.85908 -94.5,-1.2539 l -40.07227,-0.7168 v -32.24023 -32.24024 h 5.98047 c 3.54145,0 5.98242,-1.36934 5.98242,-3.35937 0,-2.5401 2.33601,-3.0482 9.56836,-2.07813 l 9.57031,1.2832 v -64.91015 -64.90821 h -9.57031 -9.56836 v 19.13868 c 0,10.52646 -0.96425,19.13867 -2.14062,19.13867 -3.72463,0 -51.25653,-4.69572 -61.85743,-6.11133 l -10.16797,-1.35938 v -46.5039 z m 258.37891,430.63086 c 3.98732,0 4.78516,1.59571 4.78516,9.57031 0,7.97463 -0.79784,9.56836 -4.78516,9.56836 -3.9873,0 -4.78515,-1.59373 -4.78515,-9.56836 0,-7.9746 0.79785,-9.57031 4.78515,-9.57031 z m -119.61914,2.39258 c 4.45134,0 4.78516,1.59509 4.78516,22.88672 v 22.88672 l -6.54297,-0.75781 c -5.26236,-0.60896 -7.80542,-3.32929 -13.00586,-13.91407 l -6.46484,-13.1582 -0.15235,13.75586 c -0.13443,12.19615 -0.70365,13.75586 -5.02539,13.75586 -4.60271,0 -4.83701,-1.23334 -4.1875,-22.12891 0.67816,-21.81686 0.77303,-22.13086 6.66016,-22.13086 4.69984,0 7.36241,2.54828 12.5039,11.96289 l 6.53321,11.96289 0.0566,-12.56054 c 0.0487,-10.94648 0.66978,-12.56055 4.83984,-12.56055 z m 17.97461,0 c 4.78589,0 7.10303,2.26106 11.36328,11.08398 l 5.35157,11.08204 1.19726,-10.46289 c 0.8541,-7.47158 2.39342,-10.69218 5.38281,-11.25977 3.75113,-0.71222 4.18555,1.58902 4.18555,22.10937 0,22.88228 -0.005,22.90235 -6.02734,22.90235 -4.9478,0 -7.05529,-2.25057 -11.76563,-12.56055 l -5.73828,-12.55859 -0.19727,12.55859 c -0.1701,10.89975 -0.82818,12.56055 -4.98046,12.56055 -4.44901,0 -4.78516,-1.59386 -4.78516,-22.72656 0,-22.67927 0.0144,-22.72852 6.01367,-22.72852 z m 64.5625,0.16992 c 28.18253,-0.0358 29.9043,0.23498 29.9043,4.68164 0,3.43806 -1.62247,4.71875 -5.98047,4.71875 -5.84803,0 -5.98047,0.39727 -5.98047,17.94141 0,16.34795 -0.42571,17.94336 -4.78515,17.94336 -4.35946,0 -4.78516,-1.59541 -4.78516,-17.94336 V 712.9336 h -14.35352 c -12.75935,0 -14.35547,0.53006 -14.35547,4.78321 0,3.72148 1.5955,4.78515 7.17774,4.78515 4.78475,0 7.17773,1.19746 7.17773,3.58985 0,2.39236 -2.39298,3.58789 -7.17773,3.58789 -6.06072,0 -7.17774,0.92986 -7.17774,5.98047 0,5.24046 1.03836,5.98046 8.375,5.98046 5.84806,0 8.37305,1.08353 8.37305,3.58985 0,2.75488 -3.05702,3.58789 -13.1582,3.58789 h -13.15821 v -22.62305 -22.62305 z m -124.25,0.0605 c 5.12251,0.0501 5.82617,1.1148 5.82617,4.42969 0,3.86038 -1.53261,4.91015 -7.17578,4.91015 -5.58222,0 -7.17773,1.0617 -7.17773,4.78321 0,3.50882 1.59442,4.78515 5.98047,4.78515 3.72147,0 5.98046,1.35696 5.98046,3.58985 0,2.23286 -2.25899,3.58789 -5.98046,3.58789 -4.78478,0 -5.98047,1.19568 -5.98047,5.98047 0,5.05057 1.11703,5.98046 7.17773,5.98046 4.78478,0 7.17578,1.19745 7.17578,3.58985 0,2.75783 -3.06705,3.58789 -13.24804,3.58789 h -13.2461 l 0.6875,-22.12891 0.6875,-22.13086 12.56055,-0.72265 c 2.82666,-0.16275 5.02492,-0.25888 6.73242,-0.24219 z m -30.20898,0.002 c 6.62726,0.0272 7.32812,1.05606 7.32812,4.44336 0,3.62543 -1.55187,4.89453 -5.98242,4.89453 -5.84807,0 -5.98047,0.39727 -5.98047,17.94141 0,16.34795 -0.42569,17.94336 -4.78516,17.94336 -4.35944,0 -4.78515,-1.59541 -4.78515,-17.94336 0,-17.68048 -0.0899,-17.94141 -6.15625,-17.94141 -4.57241,0 -5.95029,-1.07801 -5.35742,-4.1875 0.64938,-3.40601 3.80442,-4.31901 16.92187,-4.89453 3.71989,-0.1632 6.58778,-0.26492 8.79688,-0.25586 z m 212.3125,0.0664 c 1.10891,-0.0338 2.30583,0.0131 3.59375,0.13672 6.10408,0.58592 8.10775,1.99553 8.69336,6.11718 0.68197,4.8 3.5e-4,5.20242 -6.57813,3.88672 -9.9211,-1.9842 -9.40231,2.22569 1.03321,8.38282 7.01683,4.14 8.37304,6.28706 8.37304,13.25781 0,5.88392 -1.55735,9.40866 -5.31836,12.04297 -9.82401,6.88099 -26.00246,2.01804 -22.61914,-6.79883 1.26333,-3.29214 2.47405,-3.54239 6.55664,-1.35742 5.26778,2.81919 11.81055,1.6214 11.81055,-2.16211 0,-1.22713 -3.7677,-4.45465 -8.37305,-7.17188 -6.96762,-4.11099 -8.37304,-6.31055 -8.37304,-13.10156 0,-8.84537 3.43881,-12.99556 11.20117,-13.23242 z m -114.07422,78.65039 h 9.57031 c 6.91132,0 9.56836,0.99614 9.56836,3.58789 0,2.2409 -2.46982,3.71061 -6.57812,3.91406 -5.64088,0.27934 -5.81255,0.47437 -1.19727,1.36328 6.66276,1.28332 7.16302,7.88086 0.59766,7.88086 -2.63163,0 -4.78321,1.07676 -4.78321,2.39258 0,1.31581 2.69093,2.39258 5.98047,2.39258 3.28954,0 5.98047,1.07676 5.98047,2.39258 0,1.31582 -4.3051,2.39258 -9.56836,2.39258 h -9.57031 v -13.15821 z m 21.53125,0 7.77539,0.0371 c 10.67152,0.0503 13.96171,2.70827 13.50586,10.91211 -0.21369,3.84612 0.36796,8.76791 1.29101,10.9375 3.09695,7.27906 -3.76804,7.67038 -9.59375,0.54687 -5.31159,-6.49484 -5.63364,-6.58596 -5.71484,-1.64062 -0.0905,5.51534 -3.14427,8.84596 -5.73437,6.25586 -0.84142,-0.84145 -1.5293,-7.27139 -1.5293,-14.28906 z m -66.5,0.14648 c 3.10433,0.38766 6.30023,4.65304 9.48437,12.78516 4.90771,12.53393 3.09662,18.93253 -3.49414,12.3418 -4.73535,-4.7354 -10.34155,-4.80695 -12.12695,-0.1543 -0.75739,1.97372 -2.21797,3.40177 -3.24609,3.17188 -1.02816,-0.22988 -6.44492,-0.83029 -12.03711,-1.33399 l -10.16797,-0.91601 v -13.19532 c 0,-11.27522 0.61022,-13.0809 4.1875,-12.40234 3.05399,0.57932 4.38524,3.53954 4.92187,10.94141 1.04468,14.40939 7.89802,14.02721 13.54297,-0.75391 2.81939,-7.38244 5.83119,-10.87203 8.93555,-10.48438 z m 30.76758,0.22266 c 4.48029,0.22804 8.36695,1.81302 8.89648,4.61328 0.5503,2.91006 -0.86161,3.55559 -6.09766,2.78711 -8.67216,-1.2728 -14.64729,4.72951 -10.1289,10.17383 3.36449,4.054 9.56836,4.82873 9.56836,1.19531 0,-1.31582 -1.6142,-2.39258 -3.58789,-2.39258 -1.97373,0 -3.58789,-1.07678 -3.58789,-2.39257 0,-1.31581 3.22834,-2.39258 7.17578,-2.39258 6.3207,0 7.17773,0.82659 7.17773,6.92187 0,4.1043 -1.53914,7.51193 -3.7832,8.37305 -15.6128,5.99119 -29.99567,-12.583 -18.08789,-23.35938 2.90127,-2.62561 7.97476,-3.75538 12.45508,-3.52734 z m -113.79102,6.80859 c 29.50608,0 46.65039,0.87944 46.65039,2.39258 0,1.51314 -17.14431,2.39063 -46.65039,2.39063 -29.50608,0 -46.65235,-0.87749 -46.65235,-2.39063 0,-1.51314 17.14627,-2.39258 46.65235,-2.39258 z m 224.88477,0 c 29.50608,0 46.65039,0.87944 46.65039,2.39258 0,1.51314 -17.14431,2.39063 -46.65039,2.39063 -29.50607,0 -46.65235,-0.87749 -46.65235,-2.39063 0,-1.51314 17.14628,-2.39258 46.65235,-2.39258 z" /><rect
       style="opacity:0;fill:#ffffff;fill-opacity:1;stroke-width:0.264583"
       id="rect12"
       width="62.665722"
       height="34.814289"
       x="94.315086"
       y="41.144161" /><text
       xml:space="preserve"
       id="text24"
       style="font-weight:bold;font-size:10.5833px;font-family:Calibri;-inkscape-font-specification:'Calibri Bold';white-space:pre;opacity:1;fill:#f9f9f9;fill-opacity:1"
       transform="matrix(-0.50800066,-1.1252641,1.0336216,-0.5530408,25.493768,327.53145)"><textPath
         xlink:href="#path24-0"
         id="textPath24"><tspan
           id="tspan24"
           style="fill:#f9f9f9">TENNET'S </tspan></textPath></text><text
       xml:space="preserve"
       id="text25"
       style="font-weight:bold;font-size:10.5833px;font-family:Calibri;-inkscape-font-specification:'Calibri Bold';white-space:pre;opacity:1;fill:#f9f9f9;fill-opacity:1"
       transform="matrix(-0.61678011,-1.1696577,1.106761,-0.62117924,26.905874,436.75388)"><textPath
         xlink:href="#path24-0"
         id="textPath25">Lager beer<tspan
   id="tspan25" /></textPath></text></g></svg>
