<?xml version="1.0" encoding="UTF-8" standalone="no"?>
<!-- Created with Inkscape (http://www.inkscape.org/) -->

<svg
   width="210mm"
   height="297mm"
   viewBox="0 0 210 297"
   version="1.1"
   id="svg1"
   xml:space="preserve"
   inkscape:version="1.3.2 (091e20e, 2023-11-25, custom)"
   sodipodi:docname="Tennents Super.svg"
   xmlns:inkscape="http://www.inkscape.org/namespaces/inkscape"
   xmlns:sodipodi="http://sodipodi.sourceforge.net/DTD/sodipodi-0.dtd"
   xmlns:xlink="http://www.w3.org/1999/xlink"
   xmlns="http://www.w3.org/2000/svg"
   xmlns:svg="http://www.w3.org/2000/svg"><sodipodi:namedview
     id="namedview1"
     pagecolor="#505050"
     bordercolor="#eeeeee"
     borderopacity="1"
     inkscape:showpageshadow="0"
     inkscape:pageopacity="0"
     inkscape:pagecheckerboard="0"
     inkscape:deskcolor="#505050"
     inkscape:document-units="mm"
     inkscape:zoom="0.41799165"
     inkscape:cx="133.97397"
     inkscape:cy="356.46645"
     inkscape:window-width="1440"
     inkscape:window-height="830"
     inkscape:window-x="-6"
     inkscape:window-y="-6"
     inkscape:window-maximized="1"
     inkscape:current-layer="layer1" /><defs
     id="defs1"><rect
       x="222.49248"
       y="906.71668"
       width="349.28927"
       height="55.025023"
       id="rect27" /><rect
       x="193.78378"
       y="746.42639"
       width="409.09908"
       height="98.088084"
       id="rect26" /><rect
       x="303.83382"
       y="562.21219"
       width="205.74574"
       height="59.809807"
       id="rect25" /><rect
       x="275.12511"
       y="112.44244"
       width="236.84684"
       height="69.379376"
       id="rect24" /><rect
       x="293.23894"
       y="693.11022"
       width="209.93243"
       height="41.708797"
       id="rect17" /><rect
       x="271.91247"
       y="629.13082"
       width="124.4044"
       height="42.652937"
       id="rect16" /><rect
       x="293.23895"
       y="693.11023"
       width="101.07858"
       height="35.877341"
       id="rect17-3" /></defs><g
     inkscape:label="Layer 1"
     inkscape:groupmode="layer"
     id="layer1"><path
       style="fill:#000000;stroke-width:0.481447"
       d="m 47.746583,8.9783512 1.795727,7.1665228 -15.263629,22.932875 2.693579,223.595531 12.57005,8.59982 8.978599,8.59985 91.581751,1.4333 12.57005,-11.46644 6.28502,-4.29992 2.69359,-0.71666 1.7957,-225.745481 -15.2636,-22.216223 -0.89787,-7.1665198 z"
       id="path13-6" /><path
       style="fill:#0d59ba;fill-opacity:1;stroke-width:0.700297"
       d="m 90.129694,267.11776 c -12.47977,-0.23773 -23.562329,-0.47374 -24.627889,-0.52445 -1.386437,-0.066 -3.054857,-1.24469 -5.866901,-4.14474 -2.16123,-2.22887 -6.463515,-5.80318 -9.56063,-7.94289 l -5.631105,-3.8904 -0.05061,-15.88579 c -0.02779,-8.7372 -0.543822,-55.96373 -1.146629,-104.94787 L 42.149932,40.719556 49.047067,29.943062 55.944217,19.166567 55.15592,15.909566 c -0.433568,-1.79135 -0.74022,-3.287993 -0.681474,-3.325875 0.05868,-0.03786 21.949087,0.07402 48.645204,0.248705 l 48.53839,0.317584 0.50764,3.317493 c 0.37873,2.47515 2.24371,5.998763 7.34505,13.877452 l 6.8374,10.559964 -0.48339,63.357611 c -0.99317,130.17036 -1.31534,148.62219 -2.59509,148.62219 -0.63518,0 -4.95099,3.35546 -9.59072,7.45657 l -8.43587,7.4566 -16.21143,-0.12403 c -8.9163,-0.068 -26.42217,-0.31844 -38.901931,-0.55616 z"
       id="path14" /><ellipse
       style="fill:#808000;fill-opacity:1;stroke-width:0.407499"
       id="path24-0"
       cx="109.15372"
       cy="97.22921"
       rx="42.726631"
       ry="43.043121" /><ellipse
       style="opacity:1;fill:#ffffff;fill-opacity:1;stroke-width:0.311233"
       id="path24"
       cx="108.87379"
       cy="95.897552"
       rx="32.282345"
       ry="33.231823" /><path
       style="fill:#000000;fill-opacity:1;stroke-width:0.444168"
       d="M 84.527145,90.422124 V 73.319328 l 47.764655,-0.371794 1.25696,19.333596 h -11.3127 l -0.41897,-8.179594 -3.77089,0.371795 v 25.282379 h 4.60887 v 13.013 l -28.491197,-0.74357 v -11.89762 l 4.608883,0.3718 V 83.729743 h -5.027872 v 7.807787 z"
       id="path15" /><path
       style="opacity:0;fill:#000080;fill-opacity:0;stroke-width:2.39239"
       d="m 385.17516,1009.2679 c -73.02778,-1.0691 -135.22469,-2.5374 -138.21536,-3.2628 -2.99067,-0.7254 -13.05442,-8.30893 -22.36388,-16.85221 -9.30946,-8.54328 -25.30978,-21.53548 -35.55628,-28.87151 l -18.62998,-13.33825 -1.47088,-88.89451 c -0.80898,-48.89198 -2.53662,-191.70756 -3.83919,-317.36796 -1.30257,-125.66041 -2.97875,-264.00049 -3.72483,-307.42241 -0.74609,-43.42192 -0.45643,-80.24275 0.64368,-81.82406 1.55443,-2.23435 46.23819,-1.84554 200.49888,1.74462 109.17426,2.54085 212.80118,4.64209 230.28203,4.66941 31.48386,0.0492 31.75822,0.003 29.11298,-4.94001 -1.46872,-2.74433 -2.1321,-5.52798 -1.4742,-6.18588 0.65791,-0.65791 2.50812,1.25512 4.11155,4.25118 2.26786,4.23752 2.5488,57.5506 1.26502,240.04222 -1.9732,280.48957 -5.59123,542.21059 -7.66477,554.45323 -1.12536,6.64429 -3.65957,10.29764 -10.17709,14.67146 -4.77321,3.20325 -20.51149,16.17801 -34.97391,28.8328 l -26.29535,23.00868 -14.37532,-0.3851 c -7.90644,-0.2118 -74.12533,-1.2598 -147.1531,-2.3289 z M 353.20891,807.4324 c 1.7854,-4.65268 7.3911,-4.5816 12.12648,0.1538 6.59076,6.59076 8.40271,0.19233 3.495,-12.34163 -6.36833,-16.2643 -12.78221,-17.06522 -18.42099,-2.30029 -5.64498,14.78118 -12.49795,15.16196 -13.54263,0.75251 -0.53663,-7.40187 -1.86832,-10.36188 -4.92234,-10.9412 -3.57728,-0.67856 -4.18669,1.12662 -4.18669,12.40187 v 13.19601 l 10.16767,0.91578 c 5.59222,0.5037 11.00889,1.10388 12.03705,1.33376 1.02815,0.22989 2.48906,-1.19689 3.24645,-3.17061 z m 42.53634,2.13643 c 2.24406,-0.86112 3.78426,-4.26908 3.78426,-8.37338 0,-6.09531 -0.85645,-6.92121 -7.17718,-6.92121 -3.94744,0 -7.17717,1.07658 -7.17717,2.39239 0,1.31582 1.61486,2.39239 3.58859,2.39239 1.97372,0 3.58858,1.07658 3.58858,2.3924 0,3.63342 -6.20504,2.8578 -9.56956,-1.1962 -4.51839,-5.44432 1.4578,-11.44599 10.12999,-10.17319 5.23605,0.76848 6.64776,0.12328 6.09746,-2.78678 -1.05907,-5.60052 -15.54951,-6.33807 -21.35211,-1.08679 -11.90781,10.77641 2.47431,29.35159 18.08714,23.36037 z m 37.36378,-6.46432 c 0.0812,-4.94534 0.40434,-4.85249 5.71596,1.64238 5.82571,7.12351 12.6896,6.73212 9.59265,-0.54697 -0.92308,-2.16959 -1.50345,-7.09156 -1.28976,-10.93771 0.45585,-8.20387 -2.83523,-10.86302 -13.50678,-10.9133 l -7.77527,-0.0366 v 12.75942 c 0,7.0177 0.68846,13.44787 1.52988,14.28932 2.59013,2.5901 5.6428,-0.74114 5.73332,-6.25651 z m -9.6556,3.13169 c 0,-1.31582 -2.69144,-2.39239 -5.98098,-2.39239 -3.28954,0 -5.98098,-1.07658 -5.98098,-2.39239 0,-1.31582 2.15316,-2.3924 4.78479,-2.3924 6.56539,0 6.06469,-6.59786 -0.5981,-7.88118 -4.61528,-0.88894 -4.44468,-1.08325 1.1962,-1.36259 4.10833,-0.20345 6.57907,-1.67348 6.57907,-3.91438 0,-2.59175 -2.65821,-3.58859 -9.56956,-3.58859 h -9.56957 v 13.15816 13.15815 h 9.56957 c 5.26326,0 9.56956,-1.07657 9.56956,-2.39239 z M 322.97296,791.88185 c 0,-1.51314 -17.14548,-2.3924 -46.65165,-2.3924 -29.50617,0 -46.65165,0.87926 -46.65165,2.3924 0,1.51314 17.14548,2.39239 46.65165,2.39239 29.50617,0 46.65165,-0.87925 46.65165,-2.39239 z m 224.88487,0 c 0,-1.51314 -17.14548,-2.3924 -46.65165,-2.3924 -29.50616,0 -46.65165,0.87926 -46.65165,2.3924 0,1.51314 17.14549,2.39239 46.65165,2.39239 29.50617,0 46.65165,-0.87925 46.65165,-2.39239 z m -19.67147,-44.39491 c 3.76101,-2.63431 5.31712,-6.15871 5.31712,-12.04266 0,-6.97078 -1.35651,-9.11877 -8.37337,-13.2588 -10.43555,-6.15713 -10.9545,-10.36691 -1.03337,-8.38268 6.57848,1.3157 7.26105,0.91236 6.57908,-3.88764 -0.58561,-4.12168 -2.58836,-5.53104 -8.69247,-6.11696 -10.30332,-0.98899 -14.79619,2.98788 -14.79619,13.09691 0,6.79104 1.40573,8.99051 8.37338,13.10153 4.60535,2.71723 8.37337,5.94445 8.37337,7.17158 0,3.78354 -6.54274,4.98127 -11.81052,2.16205 -4.08262,-2.18497 -5.29331,-1.93422 -6.55664,1.35792 -3.38335,8.8169 12.79557,13.67977 22.61961,6.79875 z m -226.74493,-16.6111 c 0,-17.5442 0.13291,-17.94294 5.98098,-17.94294 4.43058,0 5.98098,-1.26866 5.98098,-4.89409 0,-4.51641 -1.24435,-4.8395 -16.12392,-4.18669 -13.11748,0.57552 -16.27275,1.48805 -16.92216,4.89409 -0.59287,3.10949 0.78574,4.18669 5.35815,4.18669 6.06637,0 6.1564,0.2624 6.1564,17.94294 0,16.34801 0.42531,17.94295 4.78478,17.94295 4.35947,0 4.78479,-1.59494 4.78479,-17.94295 z m 40.67067,14.35436 c 0,-2.3924 -2.3924,-3.58859 -7.17718,-3.58859 -6.06073,0 -7.17718,-0.93038 -7.17718,-5.98098 0,-4.78479 1.1962,-5.98098 5.98098,-5.98098 3.7215,0 5.98098,-1.3557 5.98098,-3.58859 0,-2.23289 -2.25948,-3.58859 -5.98098,-3.58859 -4.38605,0 -5.98098,-1.27593 -5.98098,-4.78478 0,-3.72151 1.59493,-4.78479 7.17718,-4.78479 5.64317,0 7.17718,-1.0494 7.17718,-4.90981 0,-4.41985 -1.25342,-4.83766 -12.56006,-4.18669 l -12.56006,0.72313 -0.68788,22.12963 -0.68787,22.12963 h 13.24793 c 10.18102,0 13.24794,-0.83076 13.24794,-3.58859 z m 14.50598,-10.16767 0.15163,-13.75626 6.46479,13.15816 c 5.20047,10.58481 7.74417,13.3062 13.00653,13.91516 l 6.54174,0.757 v -22.88663 c 0,-21.29169 -0.33345,-22.88663 -4.78479,-22.88663 -4.17009,0 -4.79196,1.61355 -4.84067,12.56006 l -0.0559,12.56006 -6.53266,-11.96196 c -5.14152,-9.41464 -7.80431,-11.96196 -12.50418,-11.96196 -5.88713,0 -5.98123,0.31271 -6.65939,22.12963 -0.64951,20.89563 -0.41605,22.12963 4.18669,22.12963 4.32174,0 4.89176,-1.56008 5.02619,-13.75626 z m 43.10744,1.1962 0.19603,-12.56006 5.73832,12.56006 c 4.71034,10.31001 6.81813,12.56006 11.76593,12.56006 6.02216,0 6.02763,-0.0208 6.02763,-22.90314 0,-20.52044 -0.43555,-22.82046 -4.18668,-22.10824 -2.98942,0.56759 -4.52878,3.7873 -5.38288,11.25888 l -1.1962,10.46394 -5.35178,-11.08345 c -4.26028,-8.82295 -6.57798,-11.08345 -11.36387,-11.08345 -5.99927,0 -6.01208,0.0484 -6.01208,22.72773 0,21.13279 0.33578,22.72773 4.78479,22.72773 4.15231,0 4.81069,-1.66028 4.98079,-12.56006 z m 57.22141,8.97147 c 0,-2.50632 -2.52532,-3.58859 -8.37338,-3.58859 -7.33667,0 -8.37337,-0.74049 -8.37337,-5.98098 0,-5.05061 1.11646,-5.98098 7.17718,-5.98098 4.78478,0 7.17717,-1.1962 7.17717,-3.58859 0,-2.39239 -2.39239,-3.58859 -7.17717,-3.58859 -5.58224,0 -7.17718,-1.06327 -7.17718,-4.78478 0,-4.25315 1.59494,-4.78479 14.35435,-4.78479 h 14.35436 v 17.94294 c 0,16.34801 0.42532,17.94295 4.78478,17.94295 4.35947,0 4.78479,-1.59494 4.78479,-17.94295 0,-17.5442 0.13292,-17.94294 5.98098,-17.94294 4.358,0 5.98098,-1.28036 5.98098,-4.71842 0,-4.44669 -1.72228,-4.71626 -29.9049,-4.68047 l -29.90491,0.038 v 22.6234 22.62342 h 13.15816 c 10.10121,0 13.15816,-0.83371 13.15816,-3.58859 z m 45.45545,-34.68969 c 0,-7.97463 -0.79746,-9.56957 -4.78478,-9.56957 -3.98733,0 -4.78479,1.59494 -4.78479,9.56957 0,7.97463 0.79746,9.56957 4.78479,9.56957 3.98732,0 4.78478,-1.59494 4.78478,-9.56957 z M 490.44042,498.81379 c 0,-29.24034 -0.56372,-34.68969 -3.58859,-34.68969 -1.97372,0 -3.58859,-1.07657 -3.58859,-2.39239 0,-1.31581 -4.84459,-2.39239 -10.76576,-2.39239 h -10.76577 v -62.2022 -62.2022 h 7.17718 c 7.08445,0 7.17717,0.16614 7.17717,12.85911 0,7.07251 0.69956,16.35691 1.55458,20.632 l 1.55458,7.77289 40.26578,-1.04761 c 22.14616,-0.57619 40.95711,-1.73895 41.80208,-2.58392 0.84497,-0.84497 -0.21082,-22.84601 -2.3462,-48.89119 -2.13535,-26.04519 -3.88235,-48.70061 -3.88218,-50.34538 2.4e-4,-2.36219 -33.17404,-2.99049 -157.89758,-2.99049 H 239.23923 v 46.50506 46.50506 l 10.16767,1.35776 c 10.60093,1.41561 58.13295,6.11259 61.85758,6.11259 1.1764,0 2.13891,-8.61261 2.13891,-19.13913 v -19.13914 h 9.56957 9.56957 v 64.9096 64.90959 l -9.56957,-1.28354 c -7.23238,-0.97007 -9.56957,-0.46271 -9.56957,2.07739 0,1.99006 -2.43953,3.36093 -5.98098,3.36093 h -5.98098 v 32.23944 32.23945 l 40.07257,0.71786 c 22.03991,0.39482 64.56469,0.95914 94.49949,1.25405 l 54.42693,0.53618 z"
       id="path1"
       transform="scale(0.26458333)" /><rect
       style="opacity:0;fill:#ffffff;fill-opacity:1;stroke-width:0.264583"
       id="rect12"
       width="62.665722"
       height="34.814289"
       x="94.315086"
       y="41.144161" /><text
       xml:space="preserve"
       id="text24"
       style="font-weight:bold;font-size:10.5833px;font-family:Calibri;-inkscape-font-specification:'Calibri Bold';white-space:pre;opacity:1;fill:#f9f9f9;fill-opacity:1"
       transform="matrix(-0.50800066,-1.1252641,1.0336216,-0.5530408,63.472996,280.6904)"><textPath
         xlink:href="#path24-0"
         id="textPath24"><tspan
           id="tspan24"
           style="fill:#f9f9f9">TENNET'S </tspan></textPath></text><text
       xml:space="preserve"
       id="text25"
       style="font-weight:bold;font-size:10.5833px;font-family:Calibri;-inkscape-font-specification:'Calibri Bold';white-space:pre;opacity:1;fill:#f9f9f9;fill-opacity:1"
       transform="matrix(-0.35414657,-1.2740083,1.2134828,-0.37181053,28.344206,383.00039)"><textPath
         xlink:href="#path24-0"
         id="textPath25"><tspan
           id="tspan25">SUPER</tspan></textPath></text><text
       xml:space="preserve"
       transform="matrix(0.34366279,0,0,0.30613326,-28.734146,-34.564342)"
       id="text26"
       style="font-weight:bold;font-size:40px;font-family:Calibri;-inkscape-font-specification:'Calibri Bold';text-align:center;white-space:pre;shape-inside:url(#rect26);display:inline;opacity:1;fill:#f9f9f9;fill-opacity:1"
       x="116.06445"
       y="0"><tspan
         x="268.87988"
         y="781.42578"
         id="tspan1">PLEASE THROW
</tspan><tspan
         x="287.62988"
         y="831.42578"
         id="tspan2">RESPONSIBLY</tspan></text><text
       xml:space="preserve"
       transform="scale(0.26458333)"
       id="text27"
       style="font-weight:bold;font-size:40px;font-family:Calibri;-inkscape-font-specification:'Calibri Bold';text-align:center;white-space:pre;shape-inside:url(#rect27);display:inline;opacity:1;fill:#f9f9f9;fill-opacity:1"><tspan
         x="265.58398"
         y="941.7168"
         id="tspan3">SERVE ICE COLD</tspan></text><path
       style="opacity:1;fill:#808000;fill-opacity:1;stroke-width:0.264583"
       id="path28"
       d="m 57.903223,185.98698 c 4.343326,-0.0599 8.687107,-0.0621 13.030626,-0.10319 6.600751,-0.0356 13.201422,-0.005 19.801922,0.0523 3.237539,0.0397 6.475005,0.0253 9.712549,-0.003 5.09241,-0.0356 10.1851,-0.0115 15.27761,-0.006 3.79819,0.0285 7.5964,0.012 11.39462,0.0151 2.79471,0.005 5.58934,0.0285 8.38406,0.0228 1.98732,0.10137 4.01368,-0.18374 5.97992,0.15694 1.60483,0.34283 3.22754,0.51958 4.86642,0.53389 0.26429,-0.001 0.52858,-0.002 0.79287,-0.003 0,0 -3.16178,-2.29727 -3.16178,-2.29727 v 0 c -0.26317,-0.001 -0.52633,-0.002 -0.78949,-0.004 -1.6261,-0.0505 -3.23424,-0.24303 -4.83012,-0.56623 -1.98202,-0.22435 -3.98725,-0.0265 -5.97832,-0.0875 -2.7738,-0.006 -5.5475,0.0175 -8.32129,0.0228 -3.78437,0.003 -7.56874,-0.0135 -11.35308,0.0151 -5.09763,0.006 -10.19543,0.0299 -15.292957,-0.006 -3.239955,-0.0273 -6.47985,-0.043 -9.719797,-0.003 -6.552454,0.0585 -13.105085,0.0876 -19.657798,0.0524 -4.438211,-0.0409 -8.876667,-0.0439 -13.314696,-0.1032 z" /><path
       style="opacity:1;fill:#808000;fill-opacity:1;stroke-width:0.264583"
       id="path29"
       d="m 61.701145,229.66309 c 2.504908,-0.0422 5.010533,-0.0278 7.515688,-0.0162 2.031674,-0.006 4.063354,5.3e-4 6.095007,0.0103 1.739363,-0.11327 3.437157,0.19379 5.150319,0.44375 2.454026,0.28331 4.932074,0.21681 7.397662,0.19963 2.722081,-0.0164 5.44417,-0.0305 8.166288,-0.0413 3.04228,0.31774 6.082851,0.56836 9.140371,0.67514 2.32084,0.0373 4.64174,-0.008 6.9626,-0.0163 1.78017,0.004 3.56031,-0.005 5.34049,10e-4 1.64891,0.006 3.29783,0.002 4.94675,0.002 1.97757,-0.13854 3.90848,0.21918 5.86547,0.43183 2.10744,0.25162 4.22963,0.2425 6.34791,0.23009 1.93242,-0.0318 3.86497,-0.0381 5.79759,-0.0312 1.29266,0.007 2.58533,0.01 3.87801,0.0103 1.6115,-0.007 3.22304,-0.0102 4.83456,-0.007 1.34354,0.004 2.68708,0.006 4.03063,0.007 0.14016,-0.0552 0.28032,-0.1104 0.42048,-0.1656 0,0 -3.27092,-2.22215 -3.27092,-2.22215 v 0 c -0.1092,0.0263 -0.21839,0.0525 -0.32758,0.0788 -1.33719,5.3e-4 -2.67437,0.003 -4.01155,0.007 -1.61819,0.003 -3.2364,5.3e-4 -4.85457,-0.008 -1.28574,-7.9e-4 -2.5715,-0.002 -3.85723,0.006 -1.93128,0.0115 -3.86258,0.0198 -5.79381,0.0375 -2.09658,0.0232 -4.19654,0.005 -6.28201,-0.24063 -1.97598,-0.23855 -3.93425,-0.56306 -5.9335,-0.42692 -1.64838,5.3e-4 -3.29678,-0.004 -4.94516,-0.001 -1.77423,0.003 -3.5485,-0.0107 -5.32262,0.0154 -2.31086,0.0223 -4.62234,0.0565 -6.93314,0.0196 -3.050385,-0.0841 -6.077462,-0.39853 -9.117196,-0.64314 -2.729582,-0.007 -5.459159,-0.01 -8.188571,0.0274 -2.466721,0.009 -4.946367,0.0541 -7.397364,-0.27109 -1.729647,-0.24955 -3.451606,-0.53158 -5.206314,-0.41532 -2.022203,0.01 -4.044432,0.0164 -6.066653,0.0103 -2.520053,0.0118 -5.040548,0.0254 -7.560368,-0.0162 z" /><circle
       id="path30"
       style="fill:#808000;stroke:#000000;stroke-width:0.264583"
       cx="248.76393"
       cy="132.92729"
       r="0.084313266" /></g></svg>
