<?xml version="1.0" encoding="UTF-8" standalone="no"?>
<!-- Created with Inkscape (http://www.inkscape.org/) -->

<svg
   width="210mm"
   height="297mm"
   viewBox="0 0 210 297"
   version="1.1"
   id="svg1"
   xml:space="preserve"
   inkscape:version="1.3.2 (091e20e, 2023-11-25, custom)"
   sodipodi:docname="Kebab.svg"
   xmlns:inkscape="http://www.inkscape.org/namespaces/inkscape"
   xmlns:sodipodi="http://sodipodi.sourceforge.net/DTD/sodipodi-0.dtd"
   xmlns="http://www.w3.org/2000/svg"
   xmlns:svg="http://www.w3.org/2000/svg"><sodipodi:namedview
     id="namedview1"
     pagecolor="#505050"
     bordercolor="#eeeeee"
     borderopacity="1"
     inkscape:showpageshadow="0"
     inkscape:pageopacity="0"
     inkscape:pagecheckerboard="0"
     inkscape:deskcolor="#505050"
     inkscape:document-units="mm"
     inkscape:zoom="0.52376289"
     inkscape:cx="399.99015"
     inkscape:cy="622.41905"
     inkscape:window-width="1440"
     inkscape:window-height="830"
     inkscape:window-x="-6"
     inkscape:window-y="-6"
     inkscape:window-maximized="1"
     inkscape:current-layer="layer1" /><defs
     id="defs1" /><g
     inkscape:label="Layer 1"
     inkscape:groupmode="layer"
     id="layer1"><path
       style="fill:#000000;fill-opacity:1;stroke-width:0.419971"
       d="m 96.919932,45.414093 3.081918,-49.3828431 h 11.30039 l 1.02732,51.8519871 z"
       id="path26-7" /><path
       style="fill:#1a1a1a;fill-opacity:1;stroke-width:0.440003"
       d="m 96.342008,292.25305 3.382909,-49.38283 h 12.404113 l 1.12765,51.85198 z"
       id="path26-1-3" /><path
       style="fill:#1a1a1a;fill-opacity:1;stroke-width:0.385797"
       d="m 37.406356,60.075982 11.589573,114.419108 16.556526,69.81507 23.179145,4.52502 h 44.70265 L 145.02381,242.37084 176.48122,82.701228 175.6534,58.136673 163.23601,47.793701 143.36816,41.975782 120.18901,38.097168 102.80465,37.450731 80.453337,40.682909 61.413323,45.207961 42.373309,53.611625 Z"
       id="path22-4" /><path
       style="fill:#333333;fill-opacity:1;stroke-width:0.353123"
       d="m 98.673192,45.369329 2.178878,-49.3828426 h 7.98924 l 0.7263,51.8519866 z"
       id="path26" /><path
       style="fill:#333333;fill-opacity:1;stroke-width:0.353123"
       d="m 99.097881,285.53101 2.178879,-49.38283 h 7.98924 l 0.72629,51.85198 z"
       id="path26-1" /><path
       style="fill:#d69365;fill-opacity:1;stroke-width:0.353123"
       d="m 46.380012,63.27061 10.168118,109.25954 14.525881,66.66684 20.336237,4.32098 h 39.219902 l 10.16811,-6.17285 27.59918,-152.469519 -0.72629,-23.45685 -10.89441,-9.876569 -17.43107,-5.555568 -20.33624,-3.703713 -15.25218,-0.617287 -19.609943,3.086427 -16.704765,4.321001 -16.704767,8.024712 z"
       id="path22" /><path
       style="fill:#d0834e;fill-opacity:1;stroke-width:0.353123"
       d="m 47.106306,74.381751 21.788822,4.320999 15.252178,-5.555572 11.620706,-7.407427 10.168128,-6.172855 4.35776,-8.641996 -1.45259,-8.024714 -12.347003,-0.617283 -29.778059,7.407424 -15.978473,6.790141 -5.08406,8.024714 z"
       id="path23" /><path
       style="fill:#d0834e;fill-opacity:1;stroke-width:0.402382"
       d="m 131.37246,130.5193 24.57743,-10.13903 7.87794,-13.12681 2.55161,-12.232206 2.56816,-10.486295 -5.41716,-8.707949 -10.04777,-4.760695 -11.93671,7.032323 -19.11893,23.211762 -7.19873,14.43353 4.08354,8.71335 z"
       id="path23-5" /><path
       style="fill:#d0834e;fill-opacity:1;stroke-width:0.215127"
       d="m 145.98393,180.92281 -15.9775,-2.02087 -9.12502,-5.49689 -6.19051,-5.6985 -5.49077,-4.83933 -0.91408,-4.92699 2.9219,-3.54617 8.61442,2.01643 18.64092,9.09574 9.32675,6.22015 1.56024,4.76919 z"
       id="path23-5-1" /><path
       style="fill:#f2bf98;fill-opacity:1;stroke-width:0.288557"
       d="m 154.35244,101.76 -19.93376,-2.914296 -11.38452,-7.927067 -7.72337,-8.217827 -6.85034,-6.978805 -1.14044,-7.105231 3.6454,-5.113939 10.74751,2.907894 23.25667,13.11701 11.63619,8.970073 1.94658,6.877672 z"
       id="path23-5-1-4" /><path
       style="fill:#f2bf98;fill-opacity:1;stroke-width:0.10661"
       d="m 138.64495,185.51893 -4.95647,1.59989 -2.83072,4.35175 -1.92039,4.51139 -1.70332,3.83119 -0.28357,3.90059 0.90643,2.80743 2.67233,-1.59637 5.78268,-7.20091 2.89332,-4.92434 0.484,-3.77567 z"
       id="path23-5-1-4-2" /><path
       style="fill:#f2bf98;fill-opacity:1;stroke-width:0.10661"
       d="m 74.287701,86.185895 -4.956467,1.599883 -2.830727,4.351756 -1.920384,4.51138 -1.703319,3.831196 -0.28356,3.90059 0.906418,2.80742 2.672334,-1.59635 5.782683,-7.200916 2.89331,-4.92434 0.484008,-3.775673 z"
       id="path23-5-1-4-2-1" /><path
       style="fill:#d0834e;fill-opacity:1;stroke-width:0.127095"
       d="m 79.266797,97.341064 4.924218,7.174256 5.418808,2.97668 4.858173,1.51119 4.179963,1.39587 3.169491,-0.83118 1.4497,-2.3225 -3.21125,-3.62889 -9.789199,-6.631416 -5.899761,-2.88718 -3.224871,0.47923 z"
       id="path23-5-1-7" /><path
       style="fill:#d0834e;fill-opacity:1;stroke-width:0.108329"
       d="m 85.098826,190.65004 11.636524,1.48399 5.93791,2.26925 3.7073,2.1842 3.32331,1.86691 -0.11857,1.66004 -2.76636,1.01054 -6.12286,-1.10354 -12.477939,-3.93723 -5.971077,-2.51642 -0.391073,-1.64164 z"
       id="path23-5-1-0" /><path
       style="fill:#f2bf98;fill-opacity:1;stroke-width:0.353123"
       d="m 68.168834,224.99942 23.241413,4.93828 4.357765,-6.17285 10.894408,4.93828 9.44183,-1.85187 -5.08405,-5.55556 -10.16813,-3.7037 -9.441823,-1.23458 -7.262941,5.55556 -4.357766,-8.64199 -2.905177,8.64199 z"
       id="path24" /><path
       style="fill:#f2bf98;fill-opacity:1;stroke-width:0.353123"
       d="M 59.453306,126.23373 93.589132,163.27086 70.347719,152.777 76.15807,175.61656 56.548127,139.81401 Z"
       id="path25" /></g></svg>
