<?xml version="1.0" encoding="UTF-8" standalone="no"?>
<!-- Created with Inkscape (http://www.inkscape.org/) -->

<svg
   width="210mm"
   height="297mm"
   viewBox="0 0 210 297"
   version="1.1"
   id="svg1"
   xml:space="preserve"
   inkscape:version="1.3.2 (091e20e, 2023-11-25, custom)"
   sodipodi:docname="Tennents Low.svg"
   xmlns:inkscape="http://www.inkscape.org/namespaces/inkscape"
   xmlns:sodipodi="http://sodipodi.sourceforge.net/DTD/sodipodi-0.dtd"
   xmlns="http://www.w3.org/2000/svg"
   xmlns:svg="http://www.w3.org/2000/svg"><sodipodi:namedview
     id="namedview1"
     pagecolor="#505050"
     bordercolor="#eeeeee"
     borderopacity="1"
     inkscape:showpageshadow="0"
     inkscape:pageopacity="0"
     inkscape:pagecheckerboard="0"
     inkscape:deskcolor="#505050"
     inkscape:document-units="mm"
     inkscape:zoom="0.30009657"
     inkscape:cx="133.29043"
     inkscape:cy="283.24216"
     inkscape:window-width="1440"
     inkscape:window-height="830"
     inkscape:window-x="-6"
     inkscape:window-y="-6"
     inkscape:window-maximized="1"
     inkscape:current-layer="layer1" /><defs
     id="defs1"><rect
       x="319.89703"
       y="766.41996"
       width="123.29365"
       height="49.98391"
       id="rect2" /><rect
       x="293.23894"
       y="693.11022"
       width="209.93243"
       height="41.708797"
       id="rect17" /><rect
       x="271.91247"
       y="629.13082"
       width="124.4044"
       height="42.652937"
       id="rect16" /><rect
       x="293.23895"
       y="693.11023"
       width="101.07858"
       height="35.877341"
       id="rect17-3" /></defs><g
     inkscape:label="Layer 1"
     inkscape:groupmode="layer"
     id="layer1"><path
       style="fill:#000000;stroke-width:0.481447"
       d="m 47.746583,8.9783512 1.795727,7.1665228 -15.263629,22.932875 2.693579,223.595531 12.57005,8.59982 8.978599,8.59985 91.581751,1.4333 12.57005,-11.46644 6.28502,-4.29992 2.69359,-0.71666 1.7957,-225.745481 -15.2636,-22.216223 -0.89787,-7.1665198 z"
       id="path13-6" /><path
       style="fill:#ffffff;fill-opacity:1;stroke-width:0.691311"
       d="M 63.552634,95.992089 V 72.116125 l 82.883016,-0.519034 2.18111,26.990213 h -19.63017 l -0.72704,-11.418934 -6.54341,0.519036 v 35.294854 h 7.99748 v 18.16649 L 80.274645,140.1107 v -16.60938 l 7.997501,0.51905 V 86.649348 H 79.5476 v 10.899883 z"
       id="path15-1" /><path
       style="fill:#d40000;fill-opacity:1;stroke-width:0.632758"
       d="M 68.06948,96.383543 V 74.065684 l 74.28519,-0.485163 1.95487,25.228883 h -17.59388 l -0.65161,-10.673753 -5.86462,0.485164 v 32.991595 h 7.16787 v 16.98098 l -44.310457,-0.9703 v -15.5255 l 7.167883,0.48518 V 87.650489 h -7.819509 v 10.188574 z"
       id="path15" /><path
       style="fill:#f9f9f9;fill-opacity:1;stroke-width:0.420314"
       d="M 40.639203,38.999212 164.88225,41.765718 151.16711,18.25042 148.74678,13.409035 52.740797,12.025779 55.967893,18.25042 Z"
       id="path16" /><text
       xml:space="preserve"
       transform="matrix(0.45395593,0,0,0.38916509,-71.981275,-70.666801)"
       id="text17"
       style="font-style:normal;font-variant:normal;font-weight:bold;font-stretch:normal;font-size:26.6667px;font-family:Calibri;-inkscape-font-specification:'Calibri Bold';white-space:pre;shape-inside:url(#rect17);display:inline;fill:#000000;fill-opacity:1"><tspan
         x="293.23828"
         y="716.44274"
         id="tspan1">____             ____</tspan></text><path
       style="fill:#f2f2f2;stroke-width:3.33226"
       d="m 292.64509,1007.1843 -48.91163,-1.017 -21.44113,-19.4308 C 210.49971,976.04954 194.076,962.64422 185.79519,956.94689 l -15.05602,-10.35883 -2.14593,-160.89457 c -6.60533,-495.24572 -7.7188,-631.03541 -5.19634,-633.7004 1.62806,-1.72004 98.00212,-0.77292 230.38295,2.26409 174.58703,4.00528 228.21986,4.30589 230.31432,1.2909 2.9036,-4.17976 -0.15432,540.26061 -3.94273,701.97592 -2.04771,87.41009 -2.78944,96.40356 -8.20033,99.43166 -3.27194,1.83107 -18.88505,14.44201 -34.6958,28.02427 l -28.74681,24.69507 -103.4759,-0.7368 c -56.91173,-0.4053 -125.48612,-1.1946 -152.38751,-1.7539 z m 60.57454,-200.77722 c 0,-1.83274 2.24928,-3.33226 4.99839,-3.33226 2.74912,0 4.99839,1.30228 4.99839,2.89397 0,1.59166 8.24735,3.08408 18.32744,3.31647 17.43136,0.40184 18.32743,0.016 18.32743,-7.89236 0,-6.23409 -1.75699,-8.31486 -7.02104,-8.31486 -4.87188,0 -6.43391,1.53001 -5.10297,4.99839 1.05494,2.74912 0.46561,4.99839 -1.30961,4.99839 -1.77523,0 -3.22768,-2.99903 -3.22768,-6.66452 0,-4.88732 2.22151,-6.66452 8.33065,-6.66452 4.58186,0 8.33065,-1.59002 8.33065,-3.53343 0,-2.04067 -5.22348,-3.09647 -12.36438,-2.49919 -9.97672,0.83453 -12.78001,2.64295 -14.51676,9.36488 l -2.1524,8.33065 -2.50577,-9.16371 c -3.38301,-12.37179 -13.15785,-11.9303 -18.4446,0.83306 -2.27744,5.49823 -6.20816,9.99678 -8.73492,9.99678 -2.88307,0 -4.59412,-3.72323 -4.59412,-9.99678 0,-6.66452 -1.66613,-9.99678 -4.99839,-9.99678 -3.60995,0 -4.99839,3.70251 -4.99839,13.32904 v 13.32904 h 13.32904 c 7.33097,0 13.32904,-1.49951 13.32904,-3.33226 z m 69.97748,0 c 0,-1.83274 -2.62416,-3.5062 -5.83146,-3.7188 -5.55377,-0.36815 -5.55377,-0.45912 0,-1.91048 3.2073,-0.83813 5.83146,-2.91347 5.83146,-4.61182 0,-1.69839 -2.62416,-3.26188 -5.83146,-3.47448 -5.55377,-0.36815 -5.55377,-0.45912 0,-1.91049 9.47998,-2.47736 6.65483,-7.69975 -4.16533,-7.69975 -9.4414,0 -9.99678,0.74049 -9.99678,13.32904 0,12.58855 0.55538,13.32904 9.99678,13.32904 5.49823,0 9.99679,-1.49951 9.99679,-3.33226 z m 10.10275,-2.49919 c 0.10093,-5.55378 0.31678,-5.55378 4.53269,0 7.05845,9.29834 10.98255,6.8157 10.53409,-6.66452 -0.38354,-11.52859 -1.24492,-12.57682 -11.1265,-13.54018 -10.47355,-1.02107 -10.71077,-0.74429 -10.71077,12.49598 0,12.7515 6.54346,20.2017 6.77049,7.70872 z M 323.22929,793.07804 c 0,-2.06283 -17.77206,-3.33226 -46.65165,-3.33226 -28.8796,0 -46.65165,1.26943 -46.65165,3.33226 0,2.06284 17.77205,3.33226 46.65165,3.33226 28.87959,0 46.65165,-1.26942 46.65165,-3.33226 z m 226.59372,0 c 0,-2.06283 -17.77204,-3.33226 -46.65165,-3.33226 -28.87959,0 -46.65165,1.26943 -46.65165,3.33226 0,2.06284 17.77206,3.33226 46.65165,3.33226 28.87961,0 46.65165,-1.26942 46.65165,-3.33226 z M 303.23572,731.43122 c 0,-14.06954 1.16124,-18.32743 4.99839,-18.32743 2.74912,0 4.99839,-2.24928 4.99839,-4.9984 0,-3.77655 -4.07276,-4.99839 -16.6613,-4.99839 -12.58854,0 -16.6613,1.22184 -16.6613,4.99839 0,2.74912 2.24927,4.9984 4.99839,4.9984 3.75358,0 4.99839,4.01104 4.99839,16.10591 0,16.90606 1.5753,20.54895 8.88603,20.54895 3.16396,0 4.44301,-5.27607 4.44301,-18.32743 z m 39.98713,13.32904 c 0,-3.1101 -3.14713,-4.99839 -8.33065,-4.99839 -5.18352,0 -8.33065,-1.88829 -8.33065,-4.99839 0,-2.77687 2.96201,-4.99839 6.66452,-4.99839 3.70251,0 6.66452,-2.22152 6.66452,-4.99839 0,-2.77688 -2.96201,-4.99839 -6.66452,-4.99839 -3.66549,0 -6.66452,-1.49952 -6.66452,-3.33226 0,-1.83275 3.74879,-3.33226 8.33065,-3.33226 5.18352,0 8.33065,-1.8883 8.33065,-4.9984 0,-3.60993 -3.70251,-4.99839 -13.32904,-4.99839 h -13.32905 v 23.32583 23.32582 h 13.32905 c 9.62653,0 13.32904,-1.38845 13.32904,-4.99839 z m 13.47632,-7.49758 0.14727,-12.49598 6.59685,12.49598 c 4.2226,7.99859 8.96682,12.49597 13.18177,12.49597 5.93125,0 6.58492,-2.31549 6.58492,-23.32582 0,-18.51258 -1.03142,-23.32583 -4.99839,-23.32583 -3.52823,0 -5.04171,3.67542 -5.14567,12.49598 l -0.14727,12.49598 -6.59686,-12.49598 c -4.22259,-7.99859 -8.96681,-12.49598 -13.18177,-12.49598 -5.93124,0 -6.58491,2.31549 -6.58491,23.32583 0,18.51257 1.03142,23.32582 4.99839,23.32582 3.52823,0 5.04171,-3.67541 5.14567,-12.49597 z m 43.38522,1.66613 0.21312,-10.82985 5.38984,10.82985 c 3.12164,6.27234 7.94003,10.82984 11.4498,10.82984 5.2813,0 6.05996,-2.9972 6.05996,-23.32582 0,-18.51258 -1.03142,-23.32583 -4.99839,-23.32583 -3.37399,0 -5.06765,3.51954 -5.21151,10.82985 l -0.21311,10.82985 -5.38984,-10.82985 c -3.12165,-6.27235 -7.94003,-10.82985 -11.4498,-10.82985 -5.2813,0 -6.05996,2.99721 -6.05996,23.32583 0,18.51257 1.03141,23.32582 4.99839,23.32582 3.37399,0 5.06765,-3.51953 5.2115,-10.82984 z m 56.43532,5.83145 c 0,-2.77687 -2.96201,-4.99839 -6.66452,-4.99839 -3.70251,0 -6.66452,-2.22152 -6.66452,-4.99839 0,-2.77687 2.96201,-4.99839 6.66452,-4.99839 3.66549,0 6.66452,-1.63991 6.66452,-3.64423 0,-2.00432 -2.99903,-4.42847 -6.66452,-5.38703 -11.38778,-2.97798 -7.32439,-7.63004 6.66452,-7.63004 h 13.32905 v 18.32743 c 0,14.06954 1.16124,18.32743 4.99839,18.32743 3.83714,0 4.99839,-4.25789 4.99839,-18.32743 0,-14.06954 1.16124,-18.32743 4.99839,-18.32743 2.74911,0 4.99839,-2.24928 4.99839,-4.9984 0,-4.07275 -5.55377,-4.99839 -29.99035,-4.99839 h -29.99034 v 23.32583 23.32582 h 13.32904 c 9.62653,0 13.32904,-1.38845 13.32904,-4.99839 z m 76.10227,-6.57768 c 0.86422,-7.60322 -1.07489,-11.75182 -8.33065,-17.82286 l -9.45706,-7.91296 9.4333,2.12579 c 7.85661,1.77049 9.24139,1.12917 8.28503,-3.8368 -0.84136,-4.36886 -4.25349,-5.96262 -12.76559,-5.96262 -10.66556,0 -11.70266,0.88522 -12.65965,10.80589 -0.8564,8.87751 0.48164,11.50033 7.49758,14.697 10.94255,4.98577 11.0817,10.74864 0.20933,8.67028 -6.54845,-1.25183 -8.33065,-0.22256 -8.33065,4.81108 0,5.36205 2.03245,6.23536 12.49598,5.36938 11.10193,-0.91887 12.62164,-2.13978 13.62238,-10.94418 z m -29.45062,-28.41106 c 0,-6.66452 -1.66613,-9.99678 -4.99839,-9.99678 -3.33226,0 -4.99839,3.33226 -4.99839,9.99678 0,6.66453 1.66613,9.99679 4.99839,9.99679 3.33226,0 4.99839,-3.33226 4.99839,-9.99679 z m -10.71711,-210.805 c 0.80214,-30.34683 0.16941,-35.78229 -4.16533,-35.78229 -2.81112,0 -5.11112,-1.49951 -5.11112,-3.33226 0,-1.83274 -4.49855,-3.33226 -9.99678,-3.33226 h -9.99679 v -59.59204 c 0,-56.33256 0.35633,-59.68523 6.51463,-61.29566 5.87138,-1.5354 6.61169,0.31812 7.49759,18.77185 l 0.98296,20.47547 40.59736,-0.0549 c 22.32855,-0.0302 41.45542,-0.9129 42.50412,-1.9616 1.0487,-1.0487 0.11613,-24.64141 -2.07233,-52.42824 L 555.2295,269.91311 H 397.57613 239.92277 v 46.4271 c 0,53.74373 -4.13377,48.67258 42.48632,52.12063 l 30.82341,2.27972 v -18.75725 c 0,-18.61987 0.0732,-18.75724 9.99679,-18.75724 h 9.99678 v 63.31295 63.31295 h -9.99678 c -5.49823,0 -9.99679,1.49952 -9.99679,3.33226 0,1.83275 -2.24927,3.33227 -4.99839,3.33227 -4.09225,0 -4.99839,5.73889 -4.99839,31.65647 0,17.41106 0.37488,31.85152 0.83307,32.08987 1.09337,0.56879 175.94356,5.14115 182.44127,4.77083 4.05236,-0.23092 5.1774,-7.05729 5.94419,-36.06715 z"
       id="path1"
       transform="scale(0.26458333)" /><rect
       style="fill:#f2f2f2;stroke-width:0.264583"
       id="rect1"
       width="35.266422"
       height="12.343248"
       x="84.63942"
       y="203.6636" /><text
       xml:space="preserve"
       transform="matrix(0.32946776,0,0,0.29832102,-17.408344,-25.289229)"
       id="text1"
       style="font-weight:bold;font-size:40px;font-family:Calibri;-inkscape-font-specification:'Calibri Bold';white-space:pre;shape-inside:url(#rect2);display:inline;fill:#000000"><tspan
         x="319.89648"
         y="801.41992"
         id="tspan2">LIGHT</tspan></text></g></svg>
