<?xml version="1.0" encoding="UTF-8" standalone="no"?>
<!-- Created with Inkscape (http://www.inkscape.org/) -->

<svg
   width="210mm"
   height="297mm"
   viewBox="0 0 210 297"
   version="1.1"
   id="svg1"
   xml:space="preserve"
   inkscape:version="1.3.2 (091e20e, 2023-11-25, custom)"
   sodipodi:docname="Tennents.svg"
   xmlns:inkscape="http://www.inkscape.org/namespaces/inkscape"
   xmlns:sodipodi="http://sodipodi.sourceforge.net/DTD/sodipodi-0.dtd"
   xmlns="http://www.w3.org/2000/svg"
   xmlns:svg="http://www.w3.org/2000/svg"><sodipodi:namedview
     id="namedview1"
     pagecolor="#505050"
     bordercolor="#eeeeee"
     borderopacity="1"
     inkscape:showpageshadow="0"
     inkscape:pageopacity="0"
     inkscape:pagecheckerboard="0"
     inkscape:deskcolor="#505050"
     inkscape:document-units="mm"
     inkscape:zoom="0.30009657"
     inkscape:cx="133.29043"
     inkscape:cy="283.24216"
     inkscape:window-width="1440"
     inkscape:window-height="830"
     inkscape:window-x="-6"
     inkscape:window-y="-6"
     inkscape:window-maximized="1"
     inkscape:current-layer="layer1" /><defs
     id="defs1"><rect
       x="293.23894"
       y="693.11022"
       width="209.93243"
       height="41.708797"
       id="rect17" /><rect
       x="271.91247"
       y="629.13082"
       width="124.4044"
       height="42.652937"
       id="rect16" /><rect
       x="293.23895"
       y="693.11023"
       width="101.07858"
       height="35.877341"
       id="rect17-3" /></defs><g
     inkscape:label="Layer 1"
     inkscape:groupmode="layer"
     id="layer1"><path
       style="fill:#000000;stroke-width:0.481447"
       d="m 47.746583,8.9783512 1.795727,7.1665228 -15.263629,22.932875 2.693579,223.595531 12.57005,8.59982 8.978599,8.59985 91.581751,1.4333 12.57005,-11.46644 6.28502,-4.29992 2.69359,-0.71666 1.7957,-225.745481 -15.2636,-22.216223 -0.89787,-7.1665198 z"
       id="path13-6" /><path
       style="fill:#f5d300;fill-opacity:1;stroke-width:0.700297"
       d="m 90.129694,267.11776 c -12.47977,-0.23773 -23.562329,-0.47374 -24.627889,-0.52445 -1.386437,-0.066 -3.054857,-1.24469 -5.866901,-4.14474 -2.16123,-2.22887 -6.463515,-5.80318 -9.56063,-7.94289 l -5.631105,-3.8904 -0.05061,-15.88579 c -0.02779,-8.7372 -0.543822,-55.96373 -1.146629,-104.94787 L 42.149932,40.719556 49.047067,29.943062 55.944217,19.166567 55.15592,15.909566 c -0.433568,-1.79135 -0.74022,-3.287993 -0.681474,-3.325875 0.05868,-0.03786 21.949087,0.07402 48.645204,0.248705 l 48.53839,0.317584 0.50764,3.317493 c 0.37873,2.47515 2.24371,5.998763 7.34505,13.877452 l 6.8374,10.559964 -0.48339,63.357611 c -0.99317,130.17036 -1.31534,148.62219 -2.59509,148.62219 -0.63518,0 -4.95099,3.35546 -9.59072,7.45657 l -8.43587,7.4566 -16.21143,-0.12403 c -8.9163,-0.068 -26.42217,-0.31844 -38.901931,-0.55616 z"
       id="path14" /><path
       style="fill:#ffffff;fill-opacity:1;stroke-width:0.691311"
       d="M 63.552634,95.992089 V 72.116125 l 82.883016,-0.519034 2.18111,26.990213 h -19.63017 l -0.72704,-11.418934 -6.54341,0.519036 v 35.294854 h 7.99748 v 18.16649 L 80.274645,140.1107 v -16.60938 l 7.997501,0.51905 V 86.649348 H 79.5476 v 10.899883 z"
       id="path15-1" /><path
       style="fill:#d40000;fill-opacity:1;stroke-width:0.632758"
       d="M 68.06948,96.383543 V 74.065684 l 74.28519,-0.485163 1.95487,25.228883 h -17.59388 l -0.65161,-10.673753 -5.86462,0.485164 v 32.991595 h 7.16787 v 16.98098 l -44.310457,-0.9703 v -15.5255 l 7.167883,0.48518 V 87.650489 h -7.819509 v 10.188574 z"
       id="path15" /><path
       style="fill:#f9f9f9;fill-opacity:1;stroke-width:0.420314"
       d="M 40.639203,38.999212 164.88225,41.765718 151.16711,18.25042 148.74678,13.409035 52.740797,12.025779 55.967893,18.25042 Z"
       id="path16" /><text
       xml:space="preserve"
       transform="matrix(0.62993546,0,0,0.68799401,-96.791066,-250.81828)"
       id="text16"
       style="font-style:normal;font-variant:normal;font-weight:bold;font-stretch:normal;font-size:26.6667px;font-family:Calibri;-inkscape-font-specification:'Calibri Bold';white-space:pre;shape-inside:url(#rect16);fill:#000000;fill-opacity:1"><tspan
         x="271.91211"
         y="652.46422"
         id="tspan2">TENNET'S</tspan></text><text
       xml:space="preserve"
       transform="matrix(0.45395593,0,0,0.38916509,-71.981275,-70.666801)"
       id="text17"
       style="font-style:normal;font-variant:normal;font-weight:bold;font-stretch:normal;font-size:26.6667px;font-family:Calibri;-inkscape-font-specification:'Calibri Bold';white-space:pre;shape-inside:url(#rect17);fill:#000000;fill-opacity:1"><tspan
         x="293.23828"
         y="716.44274"
         id="tspan3">____             ____</tspan></text><text
       xml:space="preserve"
       transform="matrix(0.45395593,0,0,0.38916509,-46.861184,-64.865836)"
       id="text17-8"
       style="font-style:normal;font-variant:normal;font-weight:bold;font-stretch:normal;font-size:26.6667px;font-family:Calibri;-inkscape-font-specification:'Calibri Bold';white-space:pre;shape-inside:url(#rect17-3);fill:#000000;fill-opacity:1"><tspan
         x="293.23828"
         y="716.44274"
         id="tspan4">LAGER</tspan></text></g></svg>
